<mxfile host="app.diagrams.net" modified="2024-03-05T07:57:52.175Z" agent="Mozilla/5.0 (Windows NT 10.0; Win64; x64) AppleWebKit/537.36 (KHTML, like Gecko) Chrome/122.0.0.0 Safari/537.36 Edg/122.0.0.0" etag="2Q9k6m5bl8aCwsh0xeBR" version="21.6.8" type="github">
  <diagram name="Page-1" id="WfOYl1DtsWFW-ymVSwpc">
    <mxGraphModel dx="1761" dy="525" grid="1" gridSize="10" guides="1" tooltips="1" connect="1" arrows="1" fold="1" page="1" pageScale="1" pageWidth="850" pageHeight="1100" math="0" shadow="0">
      <root>
        <mxCell id="0" />
        <mxCell id="1" parent="0" />
        <UserObject label="" plantUmlData="{&#xa;  &quot;data&quot;: &quot;@startuml\nleft to right direction\n\nactor User as user\nactor LockerSystem as lockerSystem\n\nusecase \&quot;Scan Fingerprint\&quot; as scanFingerprint\nusecase \&quot;Generate OTP\&quot; as generateOTP\nusecase \&quot;Open Locker\&quot; as openLocker\n\nuser --&gt; scanFingerprint\nuser --&gt; generateOTP\nuser --&gt; openLocker\n\nscanFingerprint --&gt; lockerSystem : Request Fingerprint Scan\ngenerateOTP --&gt; lockerSystem : Request OTP Generation\nopenLocker --&gt; lockerSystem : Request Locker Opening\n\nlockerSystem --&gt; scanFingerprint : Verify Fingerprint\nlockerSystem --&gt; generateOTP : Generate OTP\nlockerSystem --&gt; openLocker : Open Locker\n\n@enduml\n&quot;,&#xa;  &quot;format&quot;: &quot;svg&quot;&#xa;}" id="k-BVAIjow143ZyiA7SFL-1">
          <mxCell style="shape=image;noLabel=1;verticalAlign=top;aspect=fixed;imageAspect=0;image=data:image/svg+xml,PD94bWwgdmVyc2lvbj0iMS4wIiBlbmNvZGluZz0idXMtYXNjaWkiIHN0YW5kYWxvbmU9Im5vIj8+PHN2ZyB4bWxucz0iaHR0cDovL3d3dy53My5vcmcvMjAwMC9zdmciIHhtbG5zOnhsaW5rPSJodHRwOi8vd3d3LnczLm9yZy8xOTk5L3hsaW5rIiBjb250ZW50U3R5bGVUeXBlPSJ0ZXh0L2NzcyIgaGVpZ2h0PSIyNTNweCIgcHJlc2VydmVBc3BlY3RSYXRpbz0ibm9uZSIgc3R5bGU9IndpZHRoOjkwNHB4O2hlaWdodDoyNTNweDtiYWNrZ3JvdW5kOiNGRkZGRkY7IiB2ZXJzaW9uPSIxLjEiIHZpZXdCb3g9IjAgMCA5MDQgMjUzIiB3aWR0aD0iOTA0cHgiIHpvb21BbmRQYW49Im1hZ25pZnkiPjxkZWZzLz48Zz48IS0tZW50aXR5IHVzZXItLT48ZyBpZD0iZWxlbV91c2VyIj48ZWxsaXBzZSBjeD0iMjAiIGN5PSIxMjguNDQiIGZpbGw9IiNGMUYxRjEiIHJ4PSI4IiByeT0iOCIgc3R5bGU9InN0cm9rZTojMTgxODE4O3N0cm9rZS13aWR0aDowLjU7Ii8+PHBhdGggZD0iTTIwLDEzNi40NCBMMjAsMTYzLjQ0IE03LDE0NC40NCBMMzMsMTQ0LjQ0IE0yMCwxNjMuNDQgTDcsMTc4LjQ0IE0yMCwxNjMuNDQgTDMzLDE3OC40NCAiIGZpbGw9Im5vbmUiIHN0eWxlPSJzdHJva2U6IzE4MTgxODtzdHJva2Utd2lkdGg6MC41OyIvPjx0ZXh0IGZpbGw9IiMwMDAwMDAiIGZvbnQtZmFtaWx5PSJzYW5zLXNlcmlmIiBmb250LXNpemU9IjE0IiBsZW5ndGhBZGp1c3Q9InNwYWNpbmciIHRleHRMZW5ndGg9IjI4IiB4PSI2IiB5PSIxOTMuMTc0NCI+VXNlcjwvdGV4dD48L2c+PCEtLWVudGl0eSBsb2NrZXJTeXN0ZW0tLT48ZyBpZD0iZWxlbV9sb2NrZXJTeXN0ZW0iPjxlbGxpcHNlIGN4PSI1MTQuNSIgY3k9Ijk5LjQ0IiBmaWxsPSIjRjFGMUYxIiByeD0iOCIgcnk9IjgiIHN0eWxlPSJzdHJva2U6IzE4MTgxODtzdHJva2Utd2lkdGg6MC41OyIvPjxwYXRoIGQ9Ik01MTQuNSwxMDcuNDQgTDUxNC41LDEzNC40NCBNNTAxLjUsMTE1LjQ0IEw1MjcuNSwxMTUuNDQgTTUxNC41LDEzNC40NCBMNTAxLjUsMTQ5LjQ0IE01MTQuNSwxMzQuNDQgTDUyNy41LDE0OS40NCAiIGZpbGw9Im5vbmUiIHN0eWxlPSJzdHJva2U6IzE4MTgxODtzdHJva2Utd2lkdGg6MC41OyIvPjx0ZXh0IGZpbGw9IiMwMDAwMDAiIGZvbnQtZmFtaWx5PSJzYW5zLXNlcmlmIiBmb250LXNpemU9IjE0IiBsZW5ndGhBZGp1c3Q9InNwYWNpbmciIHRleHRMZW5ndGg9Ijg1IiB4PSI0NzIiIHk9IjE2NC4xNzQ0Ij5Mb2NrZXJTeXN0ZW08L3RleHQ+PC9nPjxnIGlkPSJlbGVtX3NjYW5GaW5nZXJwcmludCI+PGVsbGlwc2UgY3g9IjE3MC40Mzg0IiBjeT0iMTU3LjQyNzciIGZpbGw9IiNGMUYxRjEiIHJ4PSI3NS40Mzg0IiByeT0iMTcuNDg3NyIgc3R5bGU9InN0cm9rZTojMTgxODE4O3N0cm9rZS13aWR0aDowLjU7Ii8+PHRleHQgZmlsbD0iIzAwMDAwMCIgZm9udC1mYW1pbHk9InNhbnMtc2VyaWYiIGZvbnQtc2l6ZT0iMTQiIGxlbmd0aEFkanVzdD0ic3BhY2luZyIgdGV4dExlbmd0aD0iMTEyIiB4PSIxMTQuNDM4NCIgeT0iMTYxLjE2OTkiPlNjYW4gRmluZ2VycHJpbnQ8L3RleHQ+PC9nPjxnIGlkPSJlbGVtX2dlbmVyYXRlT1RQIj48ZWxsaXBzZSBjeD0iODM0Ljg4NzgiIGN5PSIyNi42MTc2IiBmaWxsPSIjRjFGMUYxIiByeD0iNjMuODg3OCIgcnk9IjE1LjE3NzYiIHN0eWxlPSJzdHJva2U6IzE4MTgxODtzdHJva2Utd2lkdGg6MC41OyIvPjx0ZXh0IGZpbGw9IiMwMDAwMDAiIGZvbnQtZmFtaWx5PSJzYW5zLXNlcmlmIiBmb250LXNpemU9IjE0IiBsZW5ndGhBZGp1c3Q9InNwYWNpbmciIHRleHRMZW5ndGg9Ijg0IiB4PSI3OTIuODg3OCIgeT0iMzAuMzU5NyI+R2VuZXJhdGUgT1RQPC90ZXh0PjwvZz48ZyBpZD0iZWxlbV9vcGVuTG9ja2VyIj48ZWxsaXBzZSBjeD0iODM1LjE2ODUiIGN5PSIxOTEuNTczNyIgZmlsbD0iI0YxRjFGMSIgcng9IjYxLjE2ODUiIHJ5PSIxNC42MzM3IiBzdHlsZT0ic3Ryb2tlOiMxODE4MTg7c3Ryb2tlLXdpZHRoOjAuNTsiLz48dGV4dCBmaWxsPSIjMDAwMDAwIiBmb250LWZhbWlseT0ic2Fucy1zZXJpZiIgZm9udC1zaXplPSIxNCIgbGVuZ3RoQWRqdXN0PSJzcGFjaW5nIiB0ZXh0TGVuZ3RoPSI3NyIgeD0iNzk2LjY2ODUiIHk9IjE5NS4zMTU5Ij5PcGVuIExvY2tlcjwvdGV4dD48L2c+PCEtLWxpbmsgdXNlciB0byBzY2FuRmluZ2VycHJpbnQtLT48ZyBpZD0ibGlua191c2VyX3NjYW5GaW5nZXJwcmludCI+PHBhdGggZD0iTTM0LjE4LDE1Ny40NCBDNDguMTYsMTU3LjQ0IDY1LjQyLDE1Ny40NCA4OC43NCwxNTcuNDQgIiBmaWxsPSJub25lIiBpZD0idXNlci10by1zY2FuRmluZ2VycHJpbnQiIHN0eWxlPSJzdHJva2U6IzE4MTgxODtzdHJva2Utd2lkdGg6MS4wOyIvPjxwb2x5Z29uIGZpbGw9IiMxODE4MTgiIHBvaW50cz0iOTQuNzQsMTU3LjQ0LDg1Ljc0LDE1My40NCw4OS43NCwxNTcuNDQsODUuNzQsMTYxLjQ0LDk0Ljc0LDE1Ny40NCIgc3R5bGU9InN0cm9rZTojMTgxODE4O3N0cm9rZS13aWR0aDoxLjA7Ii8+PC9nPjwhLS1saW5rIHVzZXIgdG8gZ2VuZXJhdGVPVFAtLT48ZyBpZD0ibGlua191c2VyX2dlbmVyYXRlT1RQIj48cGF0aCBkPSJNMzQuMDcsMTQ4LjMxIEM0Mi4zNSwxNDIuODQgNTMuNDUsMTM2LjA3IDY0LDEzMS40NCBDNzcuMTQsMTI1LjY4IDgxLjEsMTI2IDk1LDEyMi40NCBDMzExLjk5LDY2Ljk3IDM2NC4zNiwzNy44MSA1ODcsMTMuNDQgQzY1NS4wNCw2IDY3Mi43Miw4LjY5IDc0MSwxMy40NCBDNzU0LjM0LDE0LjM3IDc2Mi43MjY0LDE1LjIxOTYgNzc2LjA1NjQsMTcuMDU5NiAiIGZpbGw9Im5vbmUiIGlkPSJ1c2VyLXRvLWdlbmVyYXRlT1RQIiBzdHlsZT0ic3Ryb2tlOiMxODE4MTg7c3Ryb2tlLXdpZHRoOjEuMDsiLz48cG9seWdvbiBmaWxsPSIjMTgxODE4IiBwb2ludHM9Ijc4MiwxNy44OCw3NzMuNjMxNSwxMi42ODY5LDc3Ny4wNDcsMTcuMTk2Myw3NzIuNTM3NiwyMC42MTE4LDc4MiwxNy44OCIgc3R5bGU9InN0cm9rZTojMTgxODE4O3N0cm9rZS13aWR0aDoxLjA7Ii8+PC9nPjwhLS1saW5rIHVzZXIgdG8gb3BlbkxvY2tlci0tPjxnIGlkPSJsaW5rX3VzZXJfb3BlbkxvY2tlciI+PHBhdGggZD0iTTM0LjA1LDE2NS41MyBDNDguNCwxNzMuOTUgNzIuNDEsMTg2LjY5IDk1LDE5Mi40NCBDMzA3LjI1LDI0Ni40OSAzNjguMDcsMjE0LjIyIDU4NywyMjAuNDQgQzY1NS40MiwyMjIuMzkgNjczLjM0LDIzMC43NSA3NDEsMjIwLjQ0IEM3NjIuMDcsMjE3LjI0IDc3OS4yODA2LDIxMi4xODA4IDc5Ny4wNjA2LDIwNS44MjA4ICIgZmlsbD0ibm9uZSIgaWQ9InVzZXItdG8tb3BlbkxvY2tlciIgc3R5bGU9InN0cm9rZTojMTgxODE4O3N0cm9rZS13aWR0aDoxLjA7Ii8+PHBvbHlnb24gZmlsbD0iIzE4MTgxOCIgcG9pbnRzPSI4MDIuNzEsMjAzLjgsNzkyLjg4ODYsMjAzLjA2NSw3OTguMDAyMSwyMDUuNDg0LDc5NS41ODMxLDIxMC41OTc2LDgwMi43MSwyMDMuOCIgc3R5bGU9InN0cm9rZTojMTgxODE4O3N0cm9rZS13aWR0aDoxLjA7Ii8+PC9nPjwhLS1saW5rIHNjYW5GaW5nZXJwcmludCB0byBsb2NrZXJTeXN0ZW0tLT48ZyBpZD0ibGlua19zY2FuRmluZ2VycHJpbnRfbG9ja2VyU3lzdGVtIj48cGF0aCBkPSJNMjQxLjUzLDE1MS41MSBDMzEwLjcxLDE0NS42NCA0MDguMjYxNSwxMzcuMzY3IDQ2NS41NzE1LDEzMi41MDcgIiBmaWxsPSJub25lIiBpZD0ic2NhbkZpbmdlcnByaW50LXRvLWxvY2tlclN5c3RlbSIgc3R5bGU9InN0cm9rZTojMTgxODE4O3N0cm9rZS13aWR0aDoxLjA7Ii8+PHBvbHlnb24gZmlsbD0iIzE4MTgxOCIgcG9pbnRzPSI0NzEuNTUsMTMyLDQ2Mi4yNDQyLDEyOC43NzQ4LDQ2Ni41Njc5LDEzMi40MjI1LDQ2Mi45MjAyLDEzNi43NDYyLDQ3MS41NSwxMzIiIHN0eWxlPSJzdHJva2U6IzE4MTgxODtzdHJva2Utd2lkdGg6MS4wOyIvPjx0ZXh0IGZpbGw9IiMwMDAwMDAiIGZvbnQtZmFtaWx5PSJzYW5zLXNlcmlmIiBmb250LXNpemU9IjEzIiBsZW5ndGhBZGp1c3Q9InNwYWNpbmciIHRleHRMZW5ndGg9IjE2NCIgeD0iMjc3IiB5PSIxMzMuNzI5MSI+UmVxdWVzdCBGaW5nZXJwcmludCBTY2FuPC90ZXh0PjwvZz48IS0tbGluayBsb2NrZXJTeXN0ZW0gdG8gc2NhbkZpbmdlcnByaW50LS0+PGcgaWQ9ImxpbmtfbG9ja2VyU3lzdGVtX3NjYW5GaW5nZXJwcmludCI+PHBhdGggZD0iTTQ3MS43NSwxNTguNjEgQzQ2Mi4zOCwxNjMuOSA0NTIuMTksMTY4LjYyIDQ0MiwxNzEuNDQgQzM2OC4zNywxOTEuODggMjg1LjEwNzMsMTgxLjg4NzQgMjI5LjgxNzMsMTcxLjAxNzQgIiBmaWxsPSJub25lIiBpZD0ibG9ja2VyU3lzdGVtLXRvLXNjYW5GaW5nZXJwcmludCIgc3R5bGU9InN0cm9rZTojMTgxODE4O3N0cm9rZS13aWR0aDoxLjA7Ii8+PHBvbHlnb24gZmlsbD0iIzE4MTgxOCIgcG9pbnRzPSIyMjMuOTMsMTY5Ljg2LDIzMS45ODkzLDE3NS41MjEsMjI4LjgzNjEsMTcwLjgyNDUsMjMzLjUzMjYsMTY3LjY3MTMsMjIzLjkzLDE2OS44NiIgc3R5bGU9InN0cm9rZTojMTgxODE4O3N0cm9rZS13aWR0aDoxLjA7Ii8+PHRleHQgZmlsbD0iIzAwMDAwMCIgZm9udC1mYW1pbHk9InNhbnMtc2VyaWYiIGZvbnQtc2l6ZT0iMTMiIGxlbmd0aEFkanVzdD0ic3BhY2luZyIgdGV4dExlbmd0aD0iMTIxIiB4PSIyOTguNSIgeT0iMTY5LjcyOTEiPlZlcmlmeSBGaW5nZXJwcmludDwvdGV4dD48L2c+PCEtLWxpbmsgZ2VuZXJhdGVPVFAgdG8gbG9ja2VyU3lzdGVtLS0+PGcgaWQ9ImxpbmtfZ2VuZXJhdGVPVFBfbG9ja2VyU3lzdGVtIj48cGF0aCBkPSJNODE1LjUsNDAuODUgQzc5Ny40OCw1NC4xNiA3NjguOCw3My41IDc0MSw4NC40NCBDNjc5LjU4LDEwOC42MyA2MDkuMjk1OCwxMTkuMzAwMSA1NjMuMDU1OCwxMjQuMjYwMSAiIGZpbGw9Im5vbmUiIGlkPSJnZW5lcmF0ZU9UUC10by1sb2NrZXJTeXN0ZW0iIHN0eWxlPSJzdHJva2U6IzE4MTgxODtzdHJva2Utd2lkdGg6MS4wOyIvPjxwb2x5Z29uIGZpbGw9IiMxODE4MTgiIHBvaW50cz0iNTU3LjA5LDEyNC45LDU2Ni40NjUzLDEyNy45MTczLDU2Mi4wNjE1LDEyNC4zNjY3LDU2NS42MTIsMTE5Ljk2MjksNTU3LjA5LDEyNC45IiBzdHlsZT0ic3Ryb2tlOiMxODE4MTg7c3Ryb2tlLXdpZHRoOjEuMDsiLz48dGV4dCBmaWxsPSIjMDAwMDAwIiBmb250LWZhbWlseT0ic2Fucy1zZXJpZiIgZm9udC1zaXplPSIxMyIgbGVuZ3RoQWRqdXN0PSJzcGFjaW5nIiB0ZXh0TGVuZ3RoPSIxNTAiIHg9IjU4OSIgeT0iODIuNzI5MSI+UmVxdWVzdCBPVFAgR2VuZXJhdGlvbjwvdGV4dD48L2c+PCEtLWxpbmsgbG9ja2VyU3lzdGVtIHRvIGdlbmVyYXRlT1RQLS0+PGcgaWQ9ImxpbmtfbG9ja2VyU3lzdGVtX2dlbmVyYXRlT1RQIj48cGF0aCBkPSJNNTUwLjQ0LDkwLjY2IEM1NjEuMjYsODEuMDIgNTczLjgyLDcxLjY0IDU4Nyw2NS40NCBDNjE5LjQ2LDUwLjE4IDcwNi45NzIsMzguOTg5IDc2OS4xNjIsMzIuNTM5ICIgZmlsbD0ibm9uZSIgaWQ9ImxvY2tlclN5c3RlbS10by1nZW5lcmF0ZU9UUCIgc3R5bGU9InN0cm9rZTojMTgxODE4O3N0cm9rZS13aWR0aDoxLjA7Ii8+PHBvbHlnb24gZmlsbD0iIzE4MTgxOCIgcG9pbnRzPSI3NzUuMTMsMzEuOTIsNzY1Ljc2NTQsMjguODY5OCw3NzAuMTU2NywzMi40MzU4LDc2Ni41OTA3LDM2LjgyNzEsNzc1LjEzLDMxLjkyIiBzdHlsZT0ic3Ryb2tlOiMxODE4MTg7c3Ryb2tlLXdpZHRoOjEuMDsiLz48dGV4dCBmaWxsPSIjMDAwMDAwIiBmb250LWZhbWlseT0ic2Fucy1zZXJpZiIgZm9udC1zaXplPSIxMyIgbGVuZ3RoQWRqdXN0PSJzcGFjaW5nIiB0ZXh0TGVuZ3RoPSI4MiIgeD0iNjIzIiB5PSIzNC43MjkxIj5HZW5lcmF0ZSBPVFA8L3RleHQ+PC9nPjwhLS1saW5rIG9wZW5Mb2NrZXIgdG8gbG9ja2VyU3lzdGVtLS0+PGcgaWQ9Imxpbmtfb3BlbkxvY2tlcl9sb2NrZXJTeXN0ZW0iPjxwYXRoIGQ9Ik03OTAuNzUsMjAxLjQ4IEM3NDAuMDEsMjExLjEzIDY1NC4zLDIyMC43NiA1ODcsMTk0LjQ0IEM1NzEuNTgsMTg4LjQyIDU2MS43NTY2LDE4MS41NDg1IDU1MC4yMzY2LDE3MC4xNTg1ICIgZmlsbD0ibm9uZSIgaWQ9Im9wZW5Mb2NrZXItdG8tbG9ja2VyU3lzdGVtIiBzdHlsZT0ic3Ryb2tlOiMxODE4MTg7c3Ryb2tlLXdpZHRoOjEuMDsiLz48cG9seWdvbiBmaWxsPSIjMTgxODE4IiBwb2ludHM9IjU0NS45NywxNjUuOTQsNTQ5LjU1NzYsMTc1LjExMjIsNTQ5LjUyNTUsMTY5LjQ1NTQsNTU1LjE4MjMsMTY5LjQyMzMsNTQ1Ljk3LDE2NS45NCIgc3R5bGU9InN0cm9rZTojMTgxODE4O3N0cm9rZS13aWR0aDoxLjA7Ii8+PHRleHQgZmlsbD0iIzAwMDAwMCIgZm9udC1mYW1pbHk9InNhbnMtc2VyaWYiIGZvbnQtc2l6ZT0iMTMiIGxlbmd0aEFkanVzdD0ic3BhY2luZyIgdGV4dExlbmd0aD0iMTUyIiB4PSI1ODgiIHk9IjE5Mi43MjkxIj5SZXF1ZXN0IExvY2tlciBPcGVuaW5nPC90ZXh0PjwvZz48IS0tbGluayBsb2NrZXJTeXN0ZW0gdG8gb3BlbkxvY2tlci0tPjxnIGlkPSJsaW5rX2xvY2tlclN5c3RlbV9vcGVuTG9ja2VyIj48cGF0aCBkPSJNNTU3LjE0LDEzNi42OCBDNjE2LjY2LDE0OC40NSA3MTkuODI0MiwxNjguODU1IDc4MS44MTQyLDE4MS4xMjUgIiBmaWxsPSJub25lIiBpZD0ibG9ja2VyU3lzdGVtLXRvLW9wZW5Mb2NrZXIiIHN0eWxlPSJzdHJva2U6IzE4MTgxODtzdHJva2Utd2lkdGg6MS4wOyIvPjxwb2x5Z29uIGZpbGw9IiMxODE4MTgiIHBvaW50cz0iNzg3LjcsMTgyLjI5LDc3OS42NDgsMTc2LjYxODYsNzgyLjc5NTIsMTgxLjMxOTIsNzc4LjA5NDYsMTg0LjQ2NjQsNzg3LjcsMTgyLjI5IiBzdHlsZT0ic3Ryb2tlOiMxODE4MTg7c3Ryb2tlLXdpZHRoOjEuMDsiLz48dGV4dCBmaWxsPSIjMDAwMDAwIiBmb250LWZhbWlseT0ic2Fucy1zZXJpZiIgZm9udC1zaXplPSIxMyIgbGVuZ3RoQWRqdXN0PSJzcGFjaW5nIiB0ZXh0TGVuZ3RoPSI3NyIgeD0iNjI1LjUiIHk9IjE0Mi43MjkxIj5PcGVuIExvY2tlcjwvdGV4dD48L2c+PCEtLVNSQz1bVkw0bjNpOG0zRHBwMmdqeEZ6MjE0SE9hNDBOc0E5V0lLUEJZazREX0p6OTZnWWFMSy1KcGRTeU5qdFhkTzB6YWNtVjNwSDhRamp1ZmZHcnhXYWowMFhzV1pzLTZ6anV5YVVlWENCdklnbk1yS2Y1ZVQ0MGVRZ0NUUkFyaGEzZ29aZWw0M0g0S3NDcFVlS0ZJWjcwdTdxVGNhdTVPcHduM1hveHhab0dWd3dhU1pHZEFTaEZjQ0pLTThvVEdaYldlbnh2QzFuTVN5RHJaTzFhQ0tiOGJYbF9KZk5SRWNkdnZUbHlkb2VvS0ZqZWd6S0xSWUhvYkxvSHg3LUlRbG9ndlNXTm8waHpTaU1XNXVXbVZdLS0+PC9nPjwvc3ZnPg==;" vertex="1" parent="1">
            <mxGeometry x="-30" y="170" width="904" height="253" as="geometry" />
          </mxCell>
        </UserObject>
        <UserObject label="" plantUmlData="{&#xa;  &quot;data&quot;: &quot;@startuml\n\n(*) --&gt; \&quot;User: Start\&quot;\n--&gt; \&quot;User: Scan Fingerprint\&quot;\n--&gt; if \&quot;Fingerprint Matched?\&quot; then\n  --&gt; \&quot;Locker System: Verify Fingerprint\&quot;\n  --&gt; if \&quot;Fingerprint Matched\&quot; then\n    --&gt; \&quot;Locker System: Generate OTP\&quot;\n    --&gt; \&quot;Locker System: Display OTP\&quot;\n    --&gt; \&quot;User: Enter OTP\&quot;\n    --&gt; if \&quot;OTP Correct?\&quot; then\n      --&gt; \&quot;Locker System: Open Locker\&quot;\n      --&gt; \&quot;User: Access Granted\&quot;\n    else\n      --&gt; \&quot;User: Access Denied\&quot;\n      --&gt; (*)\n    endif\n  else\n    --&gt; \&quot;User: Access Denied\&quot;\n    --&gt; (*)\n  endif\nelse\n  --&gt; \&quot;User: Access Denied\&quot;\n  --&gt; (*)\nendif\n\n@enduml\n&quot;,&#xa;  &quot;format&quot;: &quot;svg&quot;&#xa;}" id="k-BVAIjow143ZyiA7SFL-2">
          <mxCell style="shape=image;noLabel=1;verticalAlign=top;aspect=fixed;imageAspect=0;image=data:image/svg+xml,PD94bWwgdmVyc2lvbj0iMS4wIiBlbmNvZGluZz0idXMtYXNjaWkiIHN0YW5kYWxvbmU9Im5vIj8+PHN2ZyB4bWxucz0iaHR0cDovL3d3dy53My5vcmcvMjAwMC9zdmciIHhtbG5zOnhsaW5rPSJodHRwOi8vd3d3LnczLm9yZy8xOTk5L3hsaW5rIiBjb250ZW50U3R5bGVUeXBlPSJ0ZXh0L2NzcyIgaGVpZ2h0PSI4MDdweCIgcHJlc2VydmVBc3BlY3RSYXRpbz0ibm9uZSIgc3R5bGU9IndpZHRoOjM3MHB4O2hlaWdodDo4MDdweDtiYWNrZ3JvdW5kOiNGRkZGRkY7IiB2ZXJzaW9uPSIxLjEiIHZpZXdCb3g9IjAgMCAzNzAgODA3IiB3aWR0aD0iMzcwcHgiIHpvb21BbmRQYW49Im1hZ25pZnkiPjxkZWZzLz48Zz48ZWxsaXBzZSBjeD0iMjM3IiBjeT0iMTYiIGZpbGw9IiMyMjIyMjIiIHJ4PSIxMCIgcnk9IjEwIiBzdHlsZT0ic3Ryb2tlOiMyMjIyMjI7c3Ryb2tlLXdpZHRoOjEuMDsiLz48cmVjdCBmaWxsPSIjRjFGMUYxIiBoZWlnaHQ9IjMyLjg0MzgiIHJ4PSIxMi41IiByeT0iMTIuNSIgc3R5bGU9InN0cm9rZTojMTgxODE4O3N0cm9rZS13aWR0aDowLjU7IiB3aWR0aD0iOTMiIHg9IjE5MC41IiB5PSI2NiIvPjx0ZXh0IGZpbGw9IiMwMDAwMDAiIGZvbnQtZmFtaWx5PSJzYW5zLXNlcmlmIiBmb250LXNpemU9IjEyIiBsZW5ndGhBZGp1c3Q9InNwYWNpbmciIHRleHRMZW5ndGg9IjczIiB4PSIyMDAuNSIgeT0iODcuMzQzOCI+VXNlcjogU3RhcnQ8L3RleHQ+PHJlY3QgZmlsbD0iI0YxRjFGMSIgaGVpZ2h0PSIzMi44NDM4IiByeD0iMTIuNSIgcnk9IjEyLjUiIHN0eWxlPSJzdHJva2U6IzE4MTgxODtzdHJva2Utd2lkdGg6MC41OyIgd2lkdGg9IjE2NiIgeD0iMTU0IiB5PSIxMzkiLz48dGV4dCBmaWxsPSIjMDAwMDAwIiBmb250LWZhbWlseT0ic2Fucy1zZXJpZiIgZm9udC1zaXplPSIxMiIgbGVuZ3RoQWRqdXN0PSJzcGFjaW5nIiB0ZXh0TGVuZ3RoPSIxNDYiIHg9IjE2NCIgeT0iMTYwLjM0MzgiPlVzZXI6IFNjYW4gRmluZ2VycHJpbnQ8L3RleHQ+PGcgaWQ9ImVsZW1fIzciPjxwb2x5Z29uIGZpbGw9IiNGMUYxRjEiIHBvaW50cz0iMjM3LDIxMiwyNDksMjI0LDIzNywyMzYsMjI1LDIyNCwyMzcsMjEyIiBzdHlsZT0ic3Ryb2tlOiMxODE4MTg7c3Ryb2tlLXdpZHRoOjAuNTsiLz48L2c+PHJlY3QgZmlsbD0iI0YxRjFGMSIgaGVpZ2h0PSIzMi44NDM4IiByeD0iMTIuNSIgcnk9IjEyLjUiIHN0eWxlPSJzdHJva2U6IzE4MTgxODtzdHJva2Utd2lkdGg6MC41OyIgd2lkdGg9IjIzNiIgeD0iNDUiIHk9IjI3NiIvPjx0ZXh0IGZpbGw9IiMwMDAwMDAiIGZvbnQtZmFtaWx5PSJzYW5zLXNlcmlmIiBmb250LXNpemU9IjEyIiBsZW5ndGhBZGp1c3Q9InNwYWNpbmciIHRleHRMZW5ndGg9IjIxNiIgeD0iNTUiIHk9IjI5Ny4zNDM4Ij5Mb2NrZXIgU3lzdGVtOiBWZXJpZnkgRmluZ2VycHJpbnQ8L3RleHQ+PGcgaWQ9ImVsZW1fIzEyIj48cG9seWdvbiBmaWxsPSIjRjFGMUYxIiBwb2ludHM9IjE2MywzNDksMTc1LDM2MSwxNjMsMzczLDE1MSwzNjEsMTYzLDM0OSIgc3R5bGU9InN0cm9rZTojMTgxODE4O3N0cm9rZS13aWR0aDowLjU7Ii8+PC9nPjxyZWN0IGZpbGw9IiNGMUYxRjEiIGhlaWdodD0iMzIuODQzOCIgcng9IjEyLjUiIHJ5PSIxMi41IiBzdHlsZT0ic3Ryb2tlOiMxODE4MTg7c3Ryb2tlLXdpZHRoOjAuNTsiIHdpZHRoPSIxOTgiIHg9IjQxIiB5PSI0MTMiLz48dGV4dCBmaWxsPSIjMDAwMDAwIiBmb250LWZhbWlseT0ic2Fucy1zZXJpZiIgZm9udC1zaXplPSIxMiIgbGVuZ3RoQWRqdXN0PSJzcGFjaW5nIiB0ZXh0TGVuZ3RoPSIxNzgiIHg9IjUxIiB5PSI0MzQuMzQzOCI+TG9ja2VyIFN5c3RlbTogR2VuZXJhdGUgT1RQPC90ZXh0PjxyZWN0IGZpbGw9IiNGMUYxRjEiIGhlaWdodD0iMzIuODQzOCIgcng9IjEyLjUiIHJ5PSIxMi41IiBzdHlsZT0ic3Ryb2tlOiMxODE4MTg7c3Ryb2tlLXdpZHRoOjAuNTsiIHdpZHRoPSIxOTAiIHg9IjQ1IiB5PSI0ODYiLz48dGV4dCBmaWxsPSIjMDAwMDAwIiBmb250LWZhbWlseT0ic2Fucy1zZXJpZiIgZm9udC1zaXplPSIxMiIgbGVuZ3RoQWRqdXN0PSJzcGFjaW5nIiB0ZXh0TGVuZ3RoPSIxNzAiIHg9IjU1IiB5PSI1MDcuMzQzOCI+TG9ja2VyIFN5c3RlbTogRGlzcGxheSBPVFA8L3RleHQ+PHJlY3QgZmlsbD0iI0YxRjFGMSIgaGVpZ2h0PSIzMi44NDM4IiByeD0iMTIuNSIgcnk9IjEyLjUiIHN0eWxlPSJzdHJva2U6IzE4MTgxODtzdHJva2Utd2lkdGg6MC41OyIgd2lkdGg9IjExOSIgeD0iODAuNSIgeT0iNTU5Ii8+PHRleHQgZmlsbD0iIzAwMDAwMCIgZm9udC1mYW1pbHk9InNhbnMtc2VyaWYiIGZvbnQtc2l6ZT0iMTIiIGxlbmd0aEFkanVzdD0ic3BhY2luZyIgdGV4dExlbmd0aD0iOTkiIHg9IjkwLjUiIHk9IjU4MC4zNDM4Ij5Vc2VyOiBFbnRlciBPVFA8L3RleHQ+PGcgaWQ9ImVsZW1fIzIxIj48cG9seWdvbiBmaWxsPSIjRjFGMUYxIiBwb2ludHM9IjE0MCw2MzIsMTUyLDY0NCwxNDAsNjU2LDEyOCw2NDQsMTQwLDYzMiIgc3R5bGU9InN0cm9rZTojMTgxODE4O3N0cm9rZS13aWR0aDowLjU7Ii8+PC9nPjxyZWN0IGZpbGw9IiNGMUYxRjEiIGhlaWdodD0iMzIuODQzOCIgcng9IjEyLjUiIHJ5PSIxMi41IiBzdHlsZT0ic3Ryb2tlOiMxODE4MTg7c3Ryb2tlLXdpZHRoOjAuNTsiIHdpZHRoPSIxOTAiIHg9IjciIHk9IjY5NiIvPjx0ZXh0IGZpbGw9IiMwMDAwMDAiIGZvbnQtZmFtaWx5PSJzYW5zLXNlcmlmIiBmb250LXNpemU9IjEyIiBsZW5ndGhBZGp1c3Q9InNwYWNpbmciIHRleHRMZW5ndGg9IjE3MCIgeD0iMTciIHk9IjcxNy4zNDM4Ij5Mb2NrZXIgU3lzdGVtOiBPcGVuIExvY2tlcjwvdGV4dD48cmVjdCBmaWxsPSIjRjFGMUYxIiBoZWlnaHQ9IjMyLjg0MzgiIHJ4PSIxMi41IiByeT0iMTIuNSIgc3R5bGU9InN0cm9rZTojMTgxODE4O3N0cm9rZS13aWR0aDowLjU7IiB3aWR0aD0iMTU0IiB4PSIyNSIgeT0iNzY5Ii8+PHRleHQgZmlsbD0iIzAwMDAwMCIgZm9udC1mYW1pbHk9InNhbnMtc2VyaWYiIGZvbnQtc2l6ZT0iMTIiIGxlbmd0aEFkanVzdD0ic3BhY2luZyIgdGV4dExlbmd0aD0iMTM0IiB4PSIzNSIgeT0iNzkwLjM0MzgiPlVzZXI6IEFjY2VzcyBHcmFudGVkPC90ZXh0PjxyZWN0IGZpbGw9IiNGMUYxRjEiIGhlaWdodD0iMzIuODQzOCIgcng9IjEyLjUiIHJ5PSIxMi41IiBzdHlsZT0ic3Ryb2tlOiMxODE4MTg7c3Ryb2tlLXdpZHRoOjAuNTsiIHdpZHRoPSIxNDciIHg9IjIxNy41IiB5PSI2OTYiLz48dGV4dCBmaWxsPSIjMDAwMDAwIiBmb250LWZhbWlseT0ic2Fucy1zZXJpZiIgZm9udC1zaXplPSIxMiIgbGVuZ3RoQWRqdXN0PSJzcGFjaW5nIiB0ZXh0TGVuZ3RoPSIxMjciIHg9IjIyNy41IiB5PSI3MTcuMzQzOCI+VXNlcjogQWNjZXNzIERlbmllZDwvdGV4dD48ZWxsaXBzZSBjeD0iMjkxIiBjeT0iNzg1LjUiIGZpbGw9Im5vbmUiIHJ4PSIxMSIgcnk9IjExIiBzdHlsZT0ic3Ryb2tlOiMyMjIyMjI7c3Ryb2tlLXdpZHRoOjEuMDsiLz48ZWxsaXBzZSBjeD0iMjkxIiBjeT0iNzg1LjUiIGZpbGw9IiMyMjIyMjIiIHJ4PSI2IiByeT0iNiIgc3R5bGU9InN0cm9rZTojMjIyMjIyO3N0cm9rZS13aWR0aDoxLjA7Ii8+PCEtLWxpbmsgc3RhcnQgdG8gVXNlcjogU3RhcnQtLT48ZyBpZD0ibGlua19zdGFydF9Vc2VyOiBTdGFydCI+PHBhdGggZD0iTTIzNywyNi4yNCBDMjM3LDM2LjU1IDIzNyw0Ny40MSAyMzcsNTkuOCAiIGZpbGw9Im5vbmUiIGlkPSJzdGFydC10by1Vc2VyOiBTdGFydCIgc3R5bGU9InN0cm9rZTojMTgxODE4O3N0cm9rZS13aWR0aDoxLjA7Ii8+PHBvbHlnb24gZmlsbD0iIzE4MTgxOCIgcG9pbnRzPSIyMzcsNjUuOCwyNDEsNTYuOCwyMzcsNjAuOCwyMzMsNTYuOCwyMzcsNjUuOCIgc3R5bGU9InN0cm9rZTojMTgxODE4O3N0cm9rZS13aWR0aDoxLjA7Ii8+PC9nPjwhLS1saW5rIFVzZXI6IFN0YXJ0IHRvIFVzZXI6IFNjYW4gRmluZ2VycHJpbnQtLT48ZyBpZD0ibGlua19Vc2VyOiBTdGFydF9Vc2VyOiBTY2FuIEZpbmdlcnByaW50Ij48cGF0aCBkPSJNMjM3LDk5LjI2IEMyMzcsMTExLjAyIDIzNywxMjEuMDMgMjM3LDEzMi43OSAiIGZpbGw9Im5vbmUiIGlkPSJVc2VyOiBTdGFydC10by1Vc2VyOiBTY2FuIEZpbmdlcnByaW50IiBzdHlsZT0ic3Ryb2tlOiMxODE4MTg7c3Ryb2tlLXdpZHRoOjEuMDsiLz48cG9seWdvbiBmaWxsPSIjMTgxODE4IiBwb2ludHM9IjIzNywxMzguNzksMjQxLDEyOS43OSwyMzcsMTMzLjc5LDIzMywxMjkuNzksMjM3LDEzOC43OSIgc3R5bGU9InN0cm9rZTojMTgxODE4O3N0cm9rZS13aWR0aDoxLjA7Ii8+PC9nPjwhLS1saW5rIFVzZXI6IFNjYW4gRmluZ2VycHJpbnQgdG8gIzctLT48ZyBpZD0ibGlua19Vc2VyOiBTY2FuIEZpbmdlcnByaW50XyM3Ij48cGF0aCBkPSJNMjM3LDE3Mi4yNiBDMjM3LDE4NC40IDIzNywxOTQuODggMjM3LDIwNS43MiAiIGZpbGw9Im5vbmUiIGlkPSJVc2VyOiBTY2FuIEZpbmdlcnByaW50LXRvLSM3IiBzdHlsZT0ic3Ryb2tlOiMxODE4MTg7c3Ryb2tlLXdpZHRoOjEuMDsiLz48cG9seWdvbiBmaWxsPSIjMTgxODE4IiBwb2ludHM9IjIzNywyMTEuNzIsMjQxLDIwMi43MiwyMzcsMjA2LjcyLDIzMywyMDIuNzIsMjM3LDIxMS43MiIgc3R5bGU9InN0cm9rZTojMTgxODE4O3N0cm9rZS13aWR0aDoxLjA7Ii8+PHRleHQgZmlsbD0iIzAwMDAwMCIgZm9udC1mYW1pbHk9InNhbnMtc2VyaWYiIGZvbnQtc2l6ZT0iMTEiIGxlbmd0aEFkanVzdD0ic3BhY2luZyIgdGV4dExlbmd0aD0iMTIwIiB4PSI5Ny4xMjUiIHk9IjIwNS4zNTY5Ij5GaW5nZXJwcmludCBNYXRjaGVkPzwvdGV4dD48L2c+PCEtLWxpbmsgIzcgdG8gTG9ja2VyIFN5c3RlbTogVmVyaWZ5IEZpbmdlcnByaW50LS0+PGcgaWQ9ImxpbmtfIzdfTG9ja2VyIFN5c3RlbTogVmVyaWZ5IEZpbmdlcnByaW50Ij48cGF0aCBkPSJNMjMxLjE5LDIzMC4yMiBDMjIwLjM2LDIzOS45NSAyMDEuMTQyNiwyNTcuMjI5NCAxODQuNzUyNiwyNzEuOTU5NCAiIGZpbGw9Im5vbmUiIGlkPSIjNy10by1Mb2NrZXIgU3lzdGVtOiBWZXJpZnkgRmluZ2VycHJpbnQiIHN0eWxlPSJzdHJva2U6IzE4MTgxODtzdHJva2Utd2lkdGg6MS4wOyIvPjxwb2x5Z29uIGZpbGw9IiMxODE4MTgiIHBvaW50cz0iMTgwLjI5LDI3NS45NywxODkuNjU3NywyNzIuOTI5MSwxODQuMDA4OCwyNzIuNjI3OCwxODQuMzEwMiwyNjYuOTc5LDE4MC4yOSwyNzUuOTciIHN0eWxlPSJzdHJva2U6IzE4MTgxODtzdHJva2Utd2lkdGg6MS4wOyIvPjwvZz48IS0tbGluayBMb2NrZXIgU3lzdGVtOiBWZXJpZnkgRmluZ2VycHJpbnQgdG8gIzEyLS0+PGcgaWQ9ImxpbmtfTG9ja2VyIFN5c3RlbTogVmVyaWZ5IEZpbmdlcnByaW50XyMxMiI+PHBhdGggZD0iTTE2MywzMDkuMjYgQzE2MywzMjEuNCAxNjMsMzMxLjg4IDE2MywzNDIuNzIgIiBmaWxsPSJub25lIiBpZD0iTG9ja2VyIFN5c3RlbTogVmVyaWZ5IEZpbmdlcnByaW50LXRvLSMxMiIgc3R5bGU9InN0cm9rZTojMTgxODE4O3N0cm9rZS13aWR0aDoxLjA7Ii8+PHBvbHlnb24gZmlsbD0iIzE4MTgxOCIgcG9pbnRzPSIxNjMsMzQ4LjcyLDE2NywzMzkuNzIsMTYzLDM0My43MiwxNTksMzM5LjcyLDE2MywzNDguNzIiIHN0eWxlPSJzdHJva2U6IzE4MTgxODtzdHJva2Utd2lkdGg6MS4wOyIvPjx0ZXh0IGZpbGw9IiMwMDAwMDAiIGZvbnQtZmFtaWx5PSJzYW5zLXNlcmlmIiBmb250LXNpemU9IjExIiBsZW5ndGhBZGp1c3Q9InNwYWNpbmciIHRleHRMZW5ndGg9IjExNCIgeD0iMjguNjkzNyIgeT0iMzQxLjkyMjEiPkZpbmdlcnByaW50IE1hdGNoZWQ8L3RleHQ+PC9nPjwhLS1saW5rICMxMiB0byBMb2NrZXIgU3lzdGVtOiBHZW5lcmF0ZSBPVFAtLT48ZyBpZD0ibGlua18jMTJfTG9ja2VyIFN5c3RlbTogR2VuZXJhdGUgT1RQIj48cGF0aCBkPSJNMTYwLjA5LDM3MC40MiBDMTU2LjQxLDM4MS4wNSAxNTEuOTgyNywzOTMuODYwMSAxNDcuMzkyNyw0MDcuMTIwMSAiIGZpbGw9Im5vbmUiIGlkPSIjMTItdG8tTG9ja2VyIFN5c3RlbTogR2VuZXJhdGUgT1RQIiBzdHlsZT0ic3Ryb2tlOiMxODE4MTg7c3Ryb2tlLXdpZHRoOjEuMDsiLz48cG9seWdvbiBmaWxsPSIjMTgxODE4IiBwb2ludHM9IjE0NS40Myw0MTIuNzksMTUyLjE1MzksNDA1LjU5MzYsMTQ3LjA2NTYsNDA4LjA2NTEsMTQ0LjU5NDEsNDAyLjk3NjcsMTQ1LjQzLDQxMi43OSIgc3R5bGU9InN0cm9rZTojMTgxODE4O3N0cm9rZS13aWR0aDoxLjA7Ii8+PC9nPjwhLS1saW5rIExvY2tlciBTeXN0ZW06IEdlbmVyYXRlIE9UUCB0byBMb2NrZXIgU3lzdGVtOiBEaXNwbGF5IE9UUC0tPjxnIGlkPSJsaW5rX0xvY2tlciBTeXN0ZW06IEdlbmVyYXRlIE9UUF9Mb2NrZXIgU3lzdGVtOiBEaXNwbGF5IE9UUCI+PHBhdGggZD0iTTE0MCw0NDYuMjYgQzE0MCw0NTguMDIgMTQwLDQ2OC4wMyAxNDAsNDc5Ljc5ICIgZmlsbD0ibm9uZSIgaWQ9IkxvY2tlciBTeXN0ZW06IEdlbmVyYXRlIE9UUC10by1Mb2NrZXIgU3lzdGVtOiBEaXNwbGF5IE9UUCIgc3R5bGU9InN0cm9rZTojMTgxODE4O3N0cm9rZS13aWR0aDoxLjA7Ii8+PHBvbHlnb24gZmlsbD0iIzE4MTgxOCIgcG9pbnRzPSIxNDAsNDg1Ljc5LDE0NCw0NzYuNzksMTQwLDQ4MC43OSwxMzYsNDc2Ljc5LDE0MCw0ODUuNzkiIHN0eWxlPSJzdHJva2U6IzE4MTgxODtzdHJva2Utd2lkdGg6MS4wOyIvPjwvZz48IS0tbGluayBMb2NrZXIgU3lzdGVtOiBEaXNwbGF5IE9UUCB0byBVc2VyOiBFbnRlciBPVFAtLT48ZyBpZD0ibGlua19Mb2NrZXIgU3lzdGVtOiBEaXNwbGF5IE9UUF9Vc2VyOiBFbnRlciBPVFAiPjxwYXRoIGQ9Ik0xNDAsNTE5LjI2IEMxNDAsNTMxLjAyIDE0MCw1NDEuMDMgMTQwLDU1Mi43OSAiIGZpbGw9Im5vbmUiIGlkPSJMb2NrZXIgU3lzdGVtOiBEaXNwbGF5IE9UUC10by1Vc2VyOiBFbnRlciBPVFAiIHN0eWxlPSJzdHJva2U6IzE4MTgxODtzdHJva2Utd2lkdGg6MS4wOyIvPjxwb2x5Z29uIGZpbGw9IiMxODE4MTgiIHBvaW50cz0iMTQwLDU1OC43OSwxNDQsNTQ5Ljc5LDE0MCw1NTMuNzksMTM2LDU0OS43OSwxNDAsNTU4Ljc5IiBzdHlsZT0ic3Ryb2tlOiMxODE4MTg7c3Ryb2tlLXdpZHRoOjEuMDsiLz48L2c+PCEtLWxpbmsgVXNlcjogRW50ZXIgT1RQIHRvICMyMS0tPjxnIGlkPSJsaW5rX1VzZXI6IEVudGVyIE9UUF8jMjEiPjxwYXRoIGQ9Ik0xNDAsNTkyLjI2IEMxNDAsNjA0LjQgMTQwLDYxNC44OCAxNDAsNjI1LjcyICIgZmlsbD0ibm9uZSIgaWQ9IlVzZXI6IEVudGVyIE9UUC10by0jMjEiIHN0eWxlPSJzdHJva2U6IzE4MTgxODtzdHJva2Utd2lkdGg6MS4wOyIvPjxwb2x5Z29uIGZpbGw9IiMxODE4MTgiIHBvaW50cz0iMTQwLDYzMS43MiwxNDQsNjIyLjcyLDE0MCw2MjYuNzIsMTM2LDYyMi43MiwxNDAsNjMxLjcyIiBzdHlsZT0ic3Ryb2tlOiMxODE4MTg7c3Ryb2tlLXdpZHRoOjEuMDsiLz48dGV4dCBmaWxsPSIjMDAwMDAwIiBmb250LWZhbWlseT0ic2Fucy1zZXJpZiIgZm9udC1zaXplPSIxMSIgbGVuZ3RoQWRqdXN0PSJzcGFjaW5nIiB0ZXh0TGVuZ3RoPSI3MiIgeD0iNTAuNDUiIHk9IjYyMi42MzkyIj5PVFAgQ29ycmVjdD88L3RleHQ+PC9nPjwhLS1saW5rICMyMSB0byBMb2NrZXIgU3lzdGVtOiBPcGVuIExvY2tlci0tPjxnIGlkPSJsaW5rXyMyMV9Mb2NrZXIgU3lzdGVtOiBPcGVuIExvY2tlciI+PHBhdGggZD0iTTEzNS45Myw2NTIuMTIgQzEzMCw2NjIuNSAxMjEuNzg2LDY3Ni44NzAxIDExMy44ODYsNjkwLjcwMDEgIiBmaWxsPSJub25lIiBpZD0iIzIxLXRvLUxvY2tlciBTeXN0ZW06IE9wZW4gTG9ja2VyIiBzdHlsZT0ic3Ryb2tlOiMxODE4MTg7c3Ryb2tlLXdpZHRoOjEuMDsiLz48cG9seWdvbiBmaWxsPSIjMTgxODE4IiBwb2ludHM9IjExMC45MSw2OTUuOTEsMTE4Ljg0NzMsNjkwLjA3OTEsMTEzLjM5LDY5MS41Njg0LDExMS45MDA4LDY4Ni4xMTExLDExMC45MSw2OTUuOTEiIHN0eWxlPSJzdHJva2U6IzE4MTgxODtzdHJva2Utd2lkdGg6MS4wOyIvPjwvZz48IS0tbGluayBMb2NrZXIgU3lzdGVtOiBPcGVuIExvY2tlciB0byBVc2VyOiBBY2Nlc3MgR3JhbnRlZC0tPjxnIGlkPSJsaW5rX0xvY2tlciBTeXN0ZW06IE9wZW4gTG9ja2VyX1VzZXI6IEFjY2VzcyBHcmFudGVkIj48cGF0aCBkPSJNMTAyLDcyOS4yNiBDMTAyLDc0MS4wMiAxMDIsNzUxLjAzIDEwMiw3NjIuNzkgIiBmaWxsPSJub25lIiBpZD0iTG9ja2VyIFN5c3RlbTogT3BlbiBMb2NrZXItdG8tVXNlcjogQWNjZXNzIEdyYW50ZWQiIHN0eWxlPSJzdHJva2U6IzE4MTgxODtzdHJva2Utd2lkdGg6MS4wOyIvPjxwb2x5Z29uIGZpbGw9IiMxODE4MTgiIHBvaW50cz0iMTAyLDc2OC43OSwxMDYsNzU5Ljc5LDEwMiw3NjMuNzksOTgsNzU5Ljc5LDEwMiw3NjguNzkiIHN0eWxlPSJzdHJva2U6IzE4MTgxODtzdHJva2Utd2lkdGg6MS4wOyIvPjwvZz48IS0tbGluayAjMjEgdG8gVXNlcjogQWNjZXNzIERlbmllZC0tPjxnIGlkPSJsaW5rXyMyMV9Vc2VyOiBBY2Nlc3MgRGVuaWVkIj48cGF0aCBkPSJNMTQ3LjcsNjQ4LjM5IEMxNjcuMjksNjU3LjAyIDIxNC41MzkyLDY3Ny44MjExIDI1MC4yNjkyLDY5My41NjExICIgZmlsbD0ibm9uZSIgaWQ9IiMyMS10by1Vc2VyOiBBY2Nlc3MgRGVuaWVkIiBzdHlsZT0ic3Ryb2tlOiMxODE4MTg7c3Ryb2tlLXdpZHRoOjEuMDsiLz48cG9seWdvbiBmaWxsPSIjMTgxODE4IiBwb2ludHM9IjI1NS43Niw2OTUuOTgsMjQ5LjEzNjMsNjg4LjY5MTIsMjUxLjE4NDMsNjkzLjk2NDMsMjQ1LjkxMTIsNjk2LjAxMjMsMjU1Ljc2LDY5NS45OCIgc3R5bGU9InN0cm9rZTojMTgxODE4O3N0cm9rZS13aWR0aDoxLjA7Ii8+PC9nPjwhLS1saW5rIFVzZXI6IEFjY2VzcyBEZW5pZWQgdG8gZW5kLS0+PGcgaWQ9ImxpbmtfVXNlcjogQWNjZXNzIERlbmllZF9lbmQiPjxwYXRoIGQ9Ik0yNzguMjksNzI5LjI2IEMyNzQuMjYsNzQ0Ljc4IDI3Mi40MTAyLDc2Mi41NzcxIDI3OS4wMzAyLDc3My4zNTcxICIgZmlsbD0ibm9uZSIgaWQ9IlVzZXI6IEFjY2VzcyBEZW5pZWQtdG8tZW5kIiBzdHlsZT0ic3Ryb2tlOiMxODE4MTg7c3Ryb2tlLXdpZHRoOjEuMDsiLz48cG9seWdvbiBmaWxsPSIjMTgxODE4IiBwb2ludHM9IjI4Mi4xNyw3NzguNDcsMjgwLjg2ODksNzY4LjcwNzUsMjc5LjU1MzUsNzc0LjIwOTMsMjc0LjA1MTcsNzcyLjg5MzksMjgyLjE3LDc3OC40NyIgc3R5bGU9InN0cm9rZTojMTgxODE4O3N0cm9rZS13aWR0aDoxLjA7Ii8+PC9nPjwhLS1saW5rIFVzZXI6IEFjY2VzcyBEZW5pZWQgdG8gZW5kLS0+PGcgaWQ9ImxpbmtfVXNlcjogQWNjZXNzIERlbmllZF9lbmQiPjxwYXRoIGQ9Ik0yOTEsNzI5LjI2IEMyOTEsNzQyLjk4IDI5MSw3NTYuNDkgMjkxLDc2OC4yNyAiIGZpbGw9Im5vbmUiIGlkPSJVc2VyOiBBY2Nlc3MgRGVuaWVkLXRvLWVuZC0xIiBzdHlsZT0ic3Ryb2tlOiMxODE4MTg7c3Ryb2tlLXdpZHRoOjEuMDsiLz48cG9seWdvbiBmaWxsPSIjMTgxODE4IiBwb2ludHM9IjI5MSw3NzQuMjcsMjk1LDc2NS4yNywyOTEsNzY5LjI3LDI4Nyw3NjUuMjcsMjkxLDc3NC4yNyIgc3R5bGU9InN0cm9rZTojMTgxODE4O3N0cm9rZS13aWR0aDoxLjA7Ii8+PC9nPjwhLS1saW5rIFVzZXI6IEFjY2VzcyBEZW5pZWQgdG8gZW5kLS0+PGcgaWQ9ImxpbmtfVXNlcjogQWNjZXNzIERlbmllZF9lbmQiPjxwYXRoIGQ9Ik0zMDMuNzEsNzI5LjI2IEMzMDcuNzQsNzQ0Ljc4IDMwOS41ODk4LDc2Mi41NzcxIDMwMi45Njk4LDc3My4zNTcxICIgZmlsbD0ibm9uZSIgaWQ9IlVzZXI6IEFjY2VzcyBEZW5pZWQtdG8tZW5kLTIiIHN0eWxlPSJzdHJva2U6IzE4MTgxODtzdHJva2Utd2lkdGg6MS4wOyIvPjxwb2x5Z29uIGZpbGw9IiMxODE4MTgiIHBvaW50cz0iMjk5LjgzLDc3OC40NywzMDcuOTQ4Myw3NzIuODkzOSwzMDIuNDQ2NSw3NzQuMjA5MywzMDEuMTMxMSw3NjguNzA3NSwyOTkuODMsNzc4LjQ3IiBzdHlsZT0ic3Ryb2tlOiMxODE4MTg7c3Ryb2tlLXdpZHRoOjEuMDsiLz48L2c+PCEtLWxpbmsgIzEyIHRvIFVzZXI6IEFjY2VzcyBEZW5pZWQtLT48ZyBpZD0ibGlua18jMTJfVXNlcjogQWNjZXNzIERlbmllZCI+PHBhdGggZD0iTTE3MS42NCwzNjQuNTcgQzE4OS4xNCwzNzAuMjYgMjI4Ljg0LDM4NS41OSAyNDksNDEzIEMyNzIuOTYsNDQ1LjU2IDI3MCw0NjEuMDcgMjcwLDUwMS41IEMyNzAsNTAxLjUgMjcwLDUwMS41IDI3MCw1NzYuNSBDMjcwLDYyMC4xNCAyNzkuNDI5OSw2NjQuOTYwNSAyODUuNTI5OSw2OTAuMDAwNSAiIGZpbGw9Im5vbmUiIGlkPSIjMTItdG8tVXNlcjogQWNjZXNzIERlbmllZCIgc3R5bGU9InN0cm9rZTojMTgxODE4O3N0cm9rZS13aWR0aDoxLjA7Ii8+PHBvbHlnb24gZmlsbD0iIzE4MTgxOCIgcG9pbnRzPSIyODYuOTUsNjk1LjgzLDI4OC43MDYxLDY4Ni4xMzksMjg1Ljc2NjYsNjkwLjk3MjEsMjgwLjkzMzUsNjg4LjAzMjUsMjg2Ljk1LDY5NS44MyIgc3R5bGU9InN0cm9rZTojMTgxODE4O3N0cm9rZS13aWR0aDoxLjA7Ii8+PC9nPjwhLS1saW5rICM3IHRvIFVzZXI6IEFjY2VzcyBEZW5pZWQtLT48ZyBpZD0ibGlua18jN19Vc2VyOiBBY2Nlc3MgRGVuaWVkIj48cGF0aCBkPSJNMjQzLjgxLDIyOS40NSBDMjU1LjM3LDIzNy4zOCAyNzguNzYsMjU1LjA4IDI5MSwyNzYgQzMxMC40NCwzMDkuMjEgMzEyLDMyMS41MiAzMTIsMzYwIEMzMTIsMzYwIDMxMiwzNjAgMzEyLDU3Ni41IEMzMTIsNjIwLjE0IDMwMi41NzAxLDY2NC45NjA1IDI5Ni40NzAxLDY5MC4wMDA1ICIgZmlsbD0ibm9uZSIgaWQ9IiM3LXRvLVVzZXI6IEFjY2VzcyBEZW5pZWQiIHN0eWxlPSJzdHJva2U6IzE4MTgxODtzdHJva2Utd2lkdGg6MS4wOyIvPjxwb2x5Z29uIGZpbGw9IiMxODE4MTgiIHBvaW50cz0iMjk1LjA1LDY5NS44MywzMDEuMDY2NSw2ODguMDMyNSwyOTYuMjMzNCw2OTAuOTcyMSwyOTMuMjkzOSw2ODYuMTM5LDI5NS4wNSw2OTUuODMiIHN0eWxlPSJzdHJva2U6IzE4MTgxODtzdHJva2Utd2lkdGg6MS4wOyIvPjwvZz48IS0tU1JDPVtWT19CM2U5MDM0TnRWNEtwQW9KbjFyWGVaMHlzNmFueXgyVDNxT2JPSTZTc19CcmVWT242c0R3VVN6bDZvR1o2dW1jZVdxREVPVVNyVW5NNVlUNDRBcWlkdjhPakZPVXMxMU00aUQ3VWRCNk9BbDFkZjBZYVNyc1IycEJpTWtWbmNpOEhzUFJqVHZjR0ZOTmxqbHp6NkhBb3pXWnZWZ2p3Z09MckpRTlI3cVlVTXZCbG9BXzlfUEdrVzdkRFpDUEZXbmwtei1TRDRhWWNHYW1zcDhuMXZvMVp0UXFnMUMzQU9JLXZHQjhsS0VQbkNYQUQyYmo2V0p1aVZyR0hkemdHejU4VW1XcTBdLS0+PC9nPjwvc3ZnPg==;" vertex="1" parent="1">
            <mxGeometry x="210" y="480" width="370" height="807" as="geometry" />
          </mxCell>
        </UserObject>
        <UserObject label="" plantUmlData="{&#xa;  &quot;data&quot;: &quot;@startuml\n\nactor User\nparticipant \&quot;Locker System\&quot; as lockerSystem\n\nUser -&gt; lockerSystem: Scan Fingerprint\nactivate lockerSystem\n\nlockerSystem -&gt; lockerSystem: Verify Fingerprint\nalt Fingerprint Matched\n  lockerSystem -&gt; lockerSystem: Generate OTP\n  lockerSystem --&gt; User: Display OTP\n  User -&gt; lockerSystem: Enter OTP\n  lockerSystem -&gt; lockerSystem: Verify OTP\n  alt OTP Correct\n    lockerSystem --&gt; User: Access Granted\n  else OTP Incorrect\n    lockerSystem --&gt; User: Access Denied\n  end\nelse Fingerprint Not Matched\n  lockerSystem --&gt; User: Access Denied\nend\n\ndeactivate lockerSystem\n\n@enduml\n&quot;,&#xa;  &quot;format&quot;: &quot;svg&quot;&#xa;}" id="k-BVAIjow143ZyiA7SFL-3">
          <mxCell style="shape=image;noLabel=1;verticalAlign=top;aspect=fixed;imageAspect=0;image=data:image/svg+xml,PD94bWwgdmVyc2lvbj0iMS4wIiBlbmNvZGluZz0idXMtYXNjaWkiIHN0YW5kYWxvbmU9Im5vIj8+PHN2ZyB4bWxucz0iaHR0cDovL3d3dy53My5vcmcvMjAwMC9zdmciIHhtbG5zOnhsaW5rPSJodHRwOi8vd3d3LnczLm9yZy8xOTk5L3hsaW5rIiBjb250ZW50U3R5bGVUeXBlPSJ0ZXh0L2NzcyIgaGVpZ2h0PSI1NTdweCIgcHJlc2VydmVBc3BlY3RSYXRpbz0ibm9uZSIgc3R5bGU9IndpZHRoOjMyMHB4O2hlaWdodDo1NTdweDtiYWNrZ3JvdW5kOiNGRkZGRkY7IiB2ZXJzaW9uPSIxLjEiIHZpZXdCb3g9IjAgMCAzMjAgNTU3IiB3aWR0aD0iMzIwcHgiIHpvb21BbmRQYW49Im1hZ25pZnkiPjxkZWZzLz48Zz48cmVjdCBmaWxsPSIjRkZGRkZGIiBoZWlnaHQ9IjM1Ny42ODc1IiBzdHlsZT0ic3Ryb2tlOiMxODE4MTg7c3Ryb2tlLXdpZHRoOjEuMDsiIHdpZHRoPSIxMCIgeD0iMTc1IiB5PSIxMDkuODk4NCIvPjxyZWN0IGZpbGw9Im5vbmUiIGhlaWdodD0iMjk0Ljc3MzQiIHN0eWxlPSJzdHJva2U6IzAwMDAwMDtzdHJva2Utd2lkdGg6MS41OyIgd2lkdGg9IjI3NiIgeD0iMTAiIHk9IjE2NS44MTI1Ii8+PHJlY3QgZmlsbD0ibm9uZSIgaGVpZ2h0PSI4NS41MTU2IiBzdHlsZT0ic3Ryb2tlOiMwMDAwMDA7c3Ryb2tlLXdpZHRoOjEuNTsiIHdpZHRoPSIyMjMiIHg9IjIwIiB5PSIzMjYuMzgyOCIvPjxsaW5lIHN0eWxlPSJzdHJva2U6IzE4MTgxODtzdHJva2Utd2lkdGg6MC41O3N0cm9rZS1kYXNoYXJyYXk6NS4wLDUuMDsiIHgxPSI0NyIgeDI9IjQ3IiB5MT0iNzkuOTg0NCIgeTI9IjQ3Ny41ODU5Ii8+PGxpbmUgc3R5bGU9InN0cm9rZTojMTgxODE4O3N0cm9rZS13aWR0aDowLjU7c3Ryb2tlLWRhc2hhcnJheTo1LjAsNS4wOyIgeDE9IjE4MCIgeDI9IjE4MCIgeTE9Ijc5Ljk4NDQiIHkyPSI0NzcuNTg1OSIvPjx0ZXh0IGZpbGw9IiMwMDAwMDAiIGZvbnQtZmFtaWx5PSJzYW5zLXNlcmlmIiBmb250LXNpemU9IjE0IiBsZW5ndGhBZGp1c3Q9InNwYWNpbmciIHRleHRMZW5ndGg9IjI4IiB4PSIzMCIgeT0iNzguMjM0NCI+VXNlcjwvdGV4dD48ZWxsaXBzZSBjeD0iNDciIGN5PSIxMy41IiBmaWxsPSIjRTJFMkYwIiByeD0iOCIgcnk9IjgiIHN0eWxlPSJzdHJva2U6IzE4MTgxODtzdHJva2Utd2lkdGg6MC41OyIvPjxwYXRoIGQ9Ik00NywyMS41IEw0Nyw0OC41IE0zNCwyOS41IEw2MCwyOS41IE00Nyw0OC41IEwzNCw2My41IE00Nyw0OC41IEw2MCw2My41ICIgZmlsbD0ibm9uZSIgc3R5bGU9InN0cm9rZTojMTgxODE4O3N0cm9rZS13aWR0aDowLjU7Ii8+PHRleHQgZmlsbD0iIzAwMDAwMCIgZm9udC1mYW1pbHk9InNhbnMtc2VyaWYiIGZvbnQtc2l6ZT0iMTQiIGxlbmd0aEFkanVzdD0ic3BhY2luZyIgdGV4dExlbmd0aD0iMjgiIHg9IjMwIiB5PSI0ODkuODIwMyI+VXNlcjwvdGV4dD48ZWxsaXBzZSBjeD0iNDciIGN5PSI1MDAuMDcwMyIgZmlsbD0iI0UyRTJGMCIgcng9IjgiIHJ5PSI4IiBzdHlsZT0ic3Ryb2tlOiMxODE4MTg7c3Ryb2tlLXdpZHRoOjAuNTsiLz48cGF0aCBkPSJNNDcsNTA4LjA3MDMgTDQ3LDUzNS4wNzAzIE0zNCw1MTYuMDcwMyBMNjAsNTE2LjA3MDMgTTQ3LDUzNS4wNzAzIEwzNCw1NTAuMDcwMyBNNDcsNTM1LjA3MDMgTDYwLDU1MC4wNzAzICIgZmlsbD0ibm9uZSIgc3R5bGU9InN0cm9rZTojMTgxODE4O3N0cm9rZS13aWR0aDowLjU7Ii8+PHJlY3QgZmlsbD0iI0UyRTJGMCIgaGVpZ2h0PSIyOC45ODQ0IiByeD0iMi41IiByeT0iMi41IiBzdHlsZT0ic3Ryb2tlOiMxODE4MTg7c3Ryb2tlLXdpZHRoOjAuNTsiIHdpZHRoPSIxMDYiIHg9IjEyNyIgeT0iNTAiLz48dGV4dCBmaWxsPSIjMDAwMDAwIiBmb250LWZhbWlseT0ic2Fucy1zZXJpZiIgZm9udC1zaXplPSIxNCIgbGVuZ3RoQWRqdXN0PSJzcGFjaW5nIiB0ZXh0TGVuZ3RoPSI5MiIgeD0iMTM0IiB5PSI3MC4yMzQ0Ij5Mb2NrZXIgU3lzdGVtPC90ZXh0PjxyZWN0IGZpbGw9IiNFMkUyRjAiIGhlaWdodD0iMjguOTg0NCIgcng9IjIuNSIgcnk9IjIuNSIgc3R5bGU9InN0cm9rZTojMTgxODE4O3N0cm9rZS13aWR0aDowLjU7IiB3aWR0aD0iMTA2IiB4PSIxMjciIHk9IjQ3Ni41ODU5Ii8+PHRleHQgZmlsbD0iIzAwMDAwMCIgZm9udC1mYW1pbHk9InNhbnMtc2VyaWYiIGZvbnQtc2l6ZT0iMTQiIGxlbmd0aEFkanVzdD0ic3BhY2luZyIgdGV4dExlbmd0aD0iOTIiIHg9IjEzNCIgeT0iNDk2LjgyMDMiPkxvY2tlciBTeXN0ZW08L3RleHQ+PHJlY3QgZmlsbD0iI0ZGRkZGRiIgaGVpZ2h0PSIzNTcuNjg3NSIgc3R5bGU9InN0cm9rZTojMTgxODE4O3N0cm9rZS13aWR0aDoxLjA7IiB3aWR0aD0iMTAiIHg9IjE3NSIgeT0iMTA5Ljg5ODQiLz48cG9seWdvbiBmaWxsPSIjMTgxODE4IiBwb2ludHM9IjE2MywxMDUuODk4NCwxNzMsMTA5Ljg5ODQsMTYzLDExMy44OTg0LDE2NywxMDkuODk4NCIgc3R5bGU9InN0cm9rZTojMTgxODE4O3N0cm9rZS13aWR0aDoxLjA7Ii8+PGxpbmUgc3R5bGU9InN0cm9rZTojMTgxODE4O3N0cm9rZS13aWR0aDoxLjA7IiB4MT0iNDciIHgyPSIxNjkiIHkxPSIxMDkuODk4NCIgeTI9IjEwOS44OTg0Ii8+PHRleHQgZmlsbD0iIzAwMDAwMCIgZm9udC1mYW1pbHk9InNhbnMtc2VyaWYiIGZvbnQtc2l6ZT0iMTMiIGxlbmd0aEFkanVzdD0ic3BhY2luZyIgdGV4dExlbmd0aD0iMTA5IiB4PSI1NCIgeT0iMTA2LjI3MzQiPlNjYW4gRmluZ2VycHJpbnQ8L3RleHQ+PGxpbmUgc3R5bGU9InN0cm9rZTojMTgxODE4O3N0cm9rZS13aWR0aDoxLjA7IiB4MT0iMTg1IiB4Mj0iMjI3IiB5MT0iMTM3LjgxMjUiIHkyPSIxMzcuODEyNSIvPjxsaW5lIHN0eWxlPSJzdHJva2U6IzE4MTgxODtzdHJva2Utd2lkdGg6MS4wOyIgeDE9IjIyNyIgeDI9IjIyNyIgeTE9IjEzNy44MTI1IiB5Mj0iMTUwLjgxMjUiLz48bGluZSBzdHlsZT0ic3Ryb2tlOiMxODE4MTg7c3Ryb2tlLXdpZHRoOjEuMDsiIHgxPSIxODYiIHgyPSIyMjciIHkxPSIxNTAuODEyNSIgeTI9IjE1MC44MTI1Ii8+PHBvbHlnb24gZmlsbD0iIzE4MTgxOCIgcG9pbnRzPSIxOTYsMTQ2LjgxMjUsMTg2LDE1MC44MTI1LDE5NiwxNTQuODEyNSwxOTIsMTUwLjgxMjUiIHN0eWxlPSJzdHJva2U6IzE4MTgxODtzdHJva2Utd2lkdGg6MS4wOyIvPjx0ZXh0IGZpbGw9IiMwMDAwMDAiIGZvbnQtZmFtaWx5PSJzYW5zLXNlcmlmIiBmb250LXNpemU9IjEzIiBsZW5ndGhBZGp1c3Q9InNwYWNpbmciIHRleHRMZW5ndGg9IjEyMSIgeD0iMTkyIiB5PSIxMzQuMTg3NSI+VmVyaWZ5IEZpbmdlcnByaW50PC90ZXh0PjxwYXRoIGQ9Ik0xMCwxNjUuODEyNSBMNzQsMTY1LjgxMjUgTDc0LDE3MS43MjY2IEw2NCwxODEuNzI2NiBMMTAsMTgxLjcyNjYgTDEwLDE2NS44MTI1ICIgZmlsbD0iI0VFRUVFRSIgc3R5bGU9InN0cm9rZTojMDAwMDAwO3N0cm9rZS13aWR0aDoxLjU7Ii8+PHJlY3QgZmlsbD0ibm9uZSIgaGVpZ2h0PSIyOTQuNzczNCIgc3R5bGU9InN0cm9rZTojMDAwMDAwO3N0cm9rZS13aWR0aDoxLjU7IiB3aWR0aD0iMjc2IiB4PSIxMCIgeT0iMTY1LjgxMjUiLz48dGV4dCBmaWxsPSIjMDAwMDAwIiBmb250LWZhbWlseT0ic2Fucy1zZXJpZiIgZm9udC1zaXplPSIxMyIgZm9udC13ZWlnaHQ9ImJvbGQiIGxlbmd0aEFkanVzdD0ic3BhY2luZyIgdGV4dExlbmd0aD0iMTkiIHg9IjI1IiB5PSIxNzkuMTAxNiI+YWx0PC90ZXh0Pjx0ZXh0IGZpbGw9IiMwMDAwMDAiIGZvbnQtZmFtaWx5PSJzYW5zLXNlcmlmIiBmb250LXNpemU9IjExIiBmb250LXdlaWdodD0iYm9sZCIgbGVuZ3RoQWRqdXN0PSJzcGFjaW5nIiB0ZXh0TGVuZ3RoPSIxMjYiIHg9Ijg5IiB5PSIxNzguMjEwOSI+W0ZpbmdlcnByaW50IE1hdGNoZWRdPC90ZXh0PjxsaW5lIHN0eWxlPSJzdHJva2U6IzE4MTgxODtzdHJva2Utd2lkdGg6MS4wOyIgeDE9IjE4NSIgeDI9IjIyNyIgeTE9IjIwMS42NDA2IiB5Mj0iMjAxLjY0MDYiLz48bGluZSBzdHlsZT0ic3Ryb2tlOiMxODE4MTg7c3Ryb2tlLXdpZHRoOjEuMDsiIHgxPSIyMjciIHgyPSIyMjciIHkxPSIyMDEuNjQwNiIgeTI9IjIxNC42NDA2Ii8+PGxpbmUgc3R5bGU9InN0cm9rZTojMTgxODE4O3N0cm9rZS13aWR0aDoxLjA7IiB4MT0iMTg2IiB4Mj0iMjI3IiB5MT0iMjE0LjY0MDYiIHkyPSIyMTQuNjQwNiIvPjxwb2x5Z29uIGZpbGw9IiMxODE4MTgiIHBvaW50cz0iMTk2LDIxMC42NDA2LDE4NiwyMTQuNjQwNiwxOTYsMjE4LjY0MDYsMTkyLDIxNC42NDA2IiBzdHlsZT0ic3Ryb2tlOiMxODE4MTg7c3Ryb2tlLXdpZHRoOjEuMDsiLz48dGV4dCBmaWxsPSIjMDAwMDAwIiBmb250LWZhbWlseT0ic2Fucy1zZXJpZiIgZm9udC1zaXplPSIxMyIgbGVuZ3RoQWRqdXN0PSJzcGFjaW5nIiB0ZXh0TGVuZ3RoPSI4MiIgeD0iMTkyIiB5PSIxOTguMDE1NiI+R2VuZXJhdGUgT1RQPC90ZXh0Pjxwb2x5Z29uIGZpbGw9IiMxODE4MTgiIHBvaW50cz0iNTgsMjM4LjU1NDcsNDgsMjQyLjU1NDcsNTgsMjQ2LjU1NDcsNTQsMjQyLjU1NDciIHN0eWxlPSJzdHJva2U6IzE4MTgxODtzdHJva2Utd2lkdGg6MS4wOyIvPjxsaW5lIHN0eWxlPSJzdHJva2U6IzE4MTgxODtzdHJva2Utd2lkdGg6MS4wO3N0cm9rZS1kYXNoYXJyYXk6Mi4wLDIuMDsiIHgxPSI1MiIgeDI9IjE3NCIgeTE9IjI0Mi41NTQ3IiB5Mj0iMjQyLjU1NDciLz48dGV4dCBmaWxsPSIjMDAwMDAwIiBmb250LWZhbWlseT0ic2Fucy1zZXJpZiIgZm9udC1zaXplPSIxMyIgbGVuZ3RoQWRqdXN0PSJzcGFjaW5nIiB0ZXh0TGVuZ3RoPSI3NCIgeD0iNjQiIHk9IjIzOC45Mjk3Ij5EaXNwbGF5IE9UUDwvdGV4dD48cG9seWdvbiBmaWxsPSIjMTgxODE4IiBwb2ludHM9IjE2MywyNjYuNDY4OCwxNzMsMjcwLjQ2ODgsMTYzLDI3NC40Njg4LDE2NywyNzAuNDY4OCIgc3R5bGU9InN0cm9rZTojMTgxODE4O3N0cm9rZS13aWR0aDoxLjA7Ii8+PGxpbmUgc3R5bGU9InN0cm9rZTojMTgxODE4O3N0cm9rZS13aWR0aDoxLjA7IiB4MT0iNDciIHgyPSIxNjkiIHkxPSIyNzAuNDY4OCIgeTI9IjI3MC40Njg4Ii8+PHRleHQgZmlsbD0iIzAwMDAwMCIgZm9udC1mYW1pbHk9InNhbnMtc2VyaWYiIGZvbnQtc2l6ZT0iMTMiIGxlbmd0aEFkanVzdD0ic3BhY2luZyIgdGV4dExlbmd0aD0iNjEiIHg9IjU0IiB5PSIyNjYuODQzOCI+RW50ZXIgT1RQPC90ZXh0PjxsaW5lIHN0eWxlPSJzdHJva2U6IzE4MTgxODtzdHJva2Utd2lkdGg6MS4wOyIgeDE9IjE4NSIgeDI9IjIyNyIgeTE9IjI5OC4zODI4IiB5Mj0iMjk4LjM4MjgiLz48bGluZSBzdHlsZT0ic3Ryb2tlOiMxODE4MTg7c3Ryb2tlLXdpZHRoOjEuMDsiIHgxPSIyMjciIHgyPSIyMjciIHkxPSIyOTguMzgyOCIgeTI9IjMxMS4zODI4Ii8+PGxpbmUgc3R5bGU9InN0cm9rZTojMTgxODE4O3N0cm9rZS13aWR0aDoxLjA7IiB4MT0iMTg2IiB4Mj0iMjI3IiB5MT0iMzExLjM4MjgiIHkyPSIzMTEuMzgyOCIvPjxwb2x5Z29uIGZpbGw9IiMxODE4MTgiIHBvaW50cz0iMTk2LDMwNy4zODI4LDE4NiwzMTEuMzgyOCwxOTYsMzE1LjM4MjgsMTkyLDMxMS4zODI4IiBzdHlsZT0ic3Ryb2tlOiMxODE4MTg7c3Ryb2tlLXdpZHRoOjEuMDsiLz48dGV4dCBmaWxsPSIjMDAwMDAwIiBmb250LWZhbWlseT0ic2Fucy1zZXJpZiIgZm9udC1zaXplPSIxMyIgbGVuZ3RoQWRqdXN0PSJzcGFjaW5nIiB0ZXh0TGVuZ3RoPSI2NyIgeD0iMTkyIiB5PSIyOTQuNzU3OCI+VmVyaWZ5IE9UUDwvdGV4dD48cGF0aCBkPSJNMjAsMzI2LjM4MjggTDg0LDMyNi4zODI4IEw4NCwzMzIuMjk2OSBMNzQsMzQyLjI5NjkgTDIwLDM0Mi4yOTY5IEwyMCwzMjYuMzgyOCAiIGZpbGw9IiNFRUVFRUUiIHN0eWxlPSJzdHJva2U6IzAwMDAwMDtzdHJva2Utd2lkdGg6MS41OyIvPjxyZWN0IGZpbGw9Im5vbmUiIGhlaWdodD0iODUuNTE1NiIgc3R5bGU9InN0cm9rZTojMDAwMDAwO3N0cm9rZS13aWR0aDoxLjU7IiB3aWR0aD0iMjIzIiB4PSIyMCIgeT0iMzI2LjM4MjgiLz48dGV4dCBmaWxsPSIjMDAwMDAwIiBmb250LWZhbWlseT0ic2Fucy1zZXJpZiIgZm9udC1zaXplPSIxMyIgZm9udC13ZWlnaHQ9ImJvbGQiIGxlbmd0aEFkanVzdD0ic3BhY2luZyIgdGV4dExlbmd0aD0iMTkiIHg9IjM1IiB5PSIzMzkuNjcxOSI+YWx0PC90ZXh0Pjx0ZXh0IGZpbGw9IiMwMDAwMDAiIGZvbnQtZmFtaWx5PSJzYW5zLXNlcmlmIiBmb250LXNpemU9IjExIiBmb250LXdlaWdodD0iYm9sZCIgbGVuZ3RoQWRqdXN0PSJzcGFjaW5nIiB0ZXh0TGVuZ3RoPSI3OCIgeD0iOTkiIHk9IjMzOC43ODEzIj5bT1RQIENvcnJlY3RdPC90ZXh0Pjxwb2x5Z29uIGZpbGw9IiMxODE4MTgiIHBvaW50cz0iNTgsMzU4LjIxMDksNDgsMzYyLjIxMDksNTgsMzY2LjIxMDksNTQsMzYyLjIxMDkiIHN0eWxlPSJzdHJva2U6IzE4MTgxODtzdHJva2Utd2lkdGg6MS4wOyIvPjxsaW5lIHN0eWxlPSJzdHJva2U6IzE4MTgxODtzdHJva2Utd2lkdGg6MS4wO3N0cm9rZS1kYXNoYXJyYXk6Mi4wLDIuMDsiIHgxPSI1MiIgeDI9IjE3NCIgeTE9IjM2Mi4yMTA5IiB5Mj0iMzYyLjIxMDkiLz48dGV4dCBmaWxsPSIjMDAwMDAwIiBmb250LWZhbWlseT0ic2Fucy1zZXJpZiIgZm9udC1zaXplPSIxMyIgbGVuZ3RoQWRqdXN0PSJzcGFjaW5nIiB0ZXh0TGVuZ3RoPSI5NyIgeD0iNjQiIHk9IjM1OC41ODU5Ij5BY2Nlc3MgR3JhbnRlZDwvdGV4dD48bGluZSBzdHlsZT0ic3Ryb2tlOiMwMDAwMDA7c3Ryb2tlLXdpZHRoOjEuMDtzdHJva2UtZGFzaGFycmF5OjIuMCwyLjA7IiB4MT0iMjAiIHgyPSIyNDMiIHkxPSIzNzEuMjEwOSIgeTI9IjM3MS4yMTA5Ii8+PHRleHQgZmlsbD0iIzAwMDAwMCIgZm9udC1mYW1pbHk9InNhbnMtc2VyaWYiIGZvbnQtc2l6ZT0iMTEiIGZvbnQtd2VpZ2h0PSJib2xkIiBsZW5ndGhBZGp1c3Q9InNwYWNpbmciIHRleHRMZW5ndGg9IjkwIiB4PSIyNSIgeT0iMzgxLjYwOTQiPltPVFAgSW5jb3JyZWN0XTwvdGV4dD48cG9seWdvbiBmaWxsPSIjMTgxODE4IiBwb2ludHM9IjU4LDM5OS44OTg0LDQ4LDQwMy44OTg0LDU4LDQwNy44OTg0LDU0LDQwMy44OTg0IiBzdHlsZT0ic3Ryb2tlOiMxODE4MTg7c3Ryb2tlLXdpZHRoOjEuMDsiLz48bGluZSBzdHlsZT0ic3Ryb2tlOiMxODE4MTg7c3Ryb2tlLXdpZHRoOjEuMDtzdHJva2UtZGFzaGFycmF5OjIuMCwyLjA7IiB4MT0iNTIiIHgyPSIxNzQiIHkxPSI0MDMuODk4NCIgeTI9IjQwMy44OTg0Ii8+PHRleHQgZmlsbD0iIzAwMDAwMCIgZm9udC1mYW1pbHk9InNhbnMtc2VyaWYiIGZvbnQtc2l6ZT0iMTMiIGxlbmd0aEFkanVzdD0ic3BhY2luZyIgdGV4dExlbmd0aD0iOTAiIHg9IjY0IiB5PSI0MDAuMjczNCI+QWNjZXNzIERlbmllZDwvdGV4dD48bGluZSBzdHlsZT0ic3Ryb2tlOiMwMDAwMDA7c3Ryb2tlLXdpZHRoOjEuMDtzdHJva2UtZGFzaGFycmF5OjIuMCwyLjA7IiB4MT0iMTAiIHgyPSIyODYiIHkxPSI0MTkuODk4NCIgeTI9IjQxOS44OTg0Ii8+PHRleHQgZmlsbD0iIzAwMDAwMCIgZm9udC1mYW1pbHk9InNhbnMtc2VyaWYiIGZvbnQtc2l6ZT0iMTEiIGZvbnQtd2VpZ2h0PSJib2xkIiBsZW5ndGhBZGp1c3Q9InNwYWNpbmciIHRleHRMZW5ndGg9IjE1MCIgeD0iMTUiIHk9IjQzMC4yOTY5Ij5bRmluZ2VycHJpbnQgTm90IE1hdGNoZWRdPC90ZXh0Pjxwb2x5Z29uIGZpbGw9IiMxODE4MTgiIHBvaW50cz0iNTgsNDQ4LjU4NTksNDgsNDUyLjU4NTksNTgsNDU2LjU4NTksNTQsNDUyLjU4NTkiIHN0eWxlPSJzdHJva2U6IzE4MTgxODtzdHJva2Utd2lkdGg6MS4wOyIvPjxsaW5lIHN0eWxlPSJzdHJva2U6IzE4MTgxODtzdHJva2Utd2lkdGg6MS4wO3N0cm9rZS1kYXNoYXJyYXk6Mi4wLDIuMDsiIHgxPSI1MiIgeDI9IjE3NCIgeTE9IjQ1Mi41ODU5IiB5Mj0iNDUyLjU4NTkiLz48dGV4dCBmaWxsPSIjMDAwMDAwIiBmb250LWZhbWlseT0ic2Fucy1zZXJpZiIgZm9udC1zaXplPSIxMyIgbGVuZ3RoQWRqdXN0PSJzcGFjaW5nIiB0ZXh0TGVuZ3RoPSI5MCIgeD0iNjQiIHk9IjQ0OC45NjA5Ij5BY2Nlc3MgRGVuaWVkPC90ZXh0PjwhLS1TUkM9W1pMN0JSaTkwM0JwbExyWlMtbUNTYTEyWDRIQUZJWEprYmtGMllrMTROZ2pJX2Z4VGY4VWE5OFpSVVpHcEVzQ1pNUUxtMmdva0haTEZsYU9uYzZxaGtoNzJpR2Q2em5iV1dCOTVFaTJ2ZjgyRm5HMlRtdjVHdURGQlhSTE1CLVFHcEYtWXlKenJWdGZzRVJGd2RzUmVLcmZfWFhxUU5SYm0wQS1qU1hSTXpGX1gtIC1rOTdEY2ZuWG1vNy1lSWNwX0lVQk1yTThKN1IyUllUekdLRkJ2V0xRYW9NS0djS29vOUUwSjhESHdXaFNQYlE4RjNIa1hqVVNSWUV4S0toZE5leHNyVkpVemttWWR2azg5N0JfYTBdLS0+PC9nPjwvc3ZnPg==;" vertex="1" parent="1">
            <mxGeometry x="590" y="590" width="460" height="800.69" as="geometry" />
          </mxCell>
        </UserObject>
        <UserObject label="" plantUmlData="{&quot;data&quot;:&quot;@startuml\n\n!define DATASTORE data\n\n\&quot;User\&quot; --&gt; (Scan Fingerprint)\n\&quot;User\&quot; --&gt; (Enter OTP)\n\n(Scan Fingerprint) --&gt; \&quot;Locker System\&quot; : Fingerprint\n(Enter OTP) --&gt; \&quot;Locker System\&quot; : OTP\n\n\&quot;Locker System\&quot; --&gt; \&quot;User Data\&quot; : Fingerprint, OTP\n\&quot;Locker System\&quot; --&gt; \&quot;Locker Data\&quot; : Fingerprint Template, Valid OTP\n\n\&quot;Locker Data\&quot; --&gt; \&quot;Locker System\&quot; : Fingerprint Matched\n\&quot;Locker Data\&quot; --&gt; \&quot;Locker System\&quot; : OTP Generated\n\&quot;Locker Data\&quot; --&gt; \&quot;Locker System\&quot; : Open Locker\n\n@enduml\n&quot;,&quot;format&quot;:&quot;svg&quot;}" id="k-BVAIjow143ZyiA7SFL-5">
          <mxCell style="shape=image;noLabel=1;verticalAlign=top;aspect=fixed;imageAspect=0;image=data:image/svg+xml,PD94bWwgdmVyc2lvbj0iMS4wIiBlbmNvZGluZz0idXMtYXNjaWkiIHN0YW5kYWxvbmU9Im5vIj8+PHN2ZyB4bWxucz0iaHR0cDovL3d3dy53My5vcmcvMjAwMC9zdmciIHhtbG5zOnhsaW5rPSJodHRwOi8vd3d3LnczLm9yZy8xOTk5L3hsaW5rIiBjb250ZW50U3R5bGVUeXBlPSJ0ZXh0L2NzcyIgaGVpZ2h0PSI0ODNweCIgcHJlc2VydmVBc3BlY3RSYXRpbz0ibm9uZSIgc3R5bGU9IndpZHRoOjc2MXB4O2hlaWdodDo0ODNweDtiYWNrZ3JvdW5kOiNGRkZGRkY7IiB2ZXJzaW9uPSIxLjEiIHZpZXdCb3g9IjAgMCA3NjEgNDgzIiB3aWR0aD0iNzYxcHgiIHpvb21BbmRQYW49Im1hZ25pZnkiPjxkZWZzLz48Zz48IS0tZW50aXR5IFVzZXItLT48ZyBpZD0iZWxlbV9Vc2VyIj48ZWxsaXBzZSBjeD0iNDM0LjUiIGN5PSIxNCIgZmlsbD0iI0YxRjFGMSIgcng9IjgiIHJ5PSI4IiBzdHlsZT0ic3Ryb2tlOiMxODE4MTg7c3Ryb2tlLXdpZHRoOjAuNTsiLz48cGF0aCBkPSJNNDM0LjUsMjIgTDQzNC41LDQ5IE00MjEuNSwzMCBMNDQ3LjUsMzAgTTQzNC41LDQ5IEw0MjEuNSw2NCBNNDM0LjUsNDkgTDQ0Ny41LDY0ICIgZmlsbD0ibm9uZSIgc3R5bGU9InN0cm9rZTojMTgxODE4O3N0cm9rZS13aWR0aDowLjU7Ii8+PHRleHQgZmlsbD0iIzAwMDAwMCIgZm9udC1mYW1pbHk9InNhbnMtc2VyaWYiIGZvbnQtc2l6ZT0iMTQiIGxlbmd0aEFkanVzdD0ic3BhY2luZyIgdGV4dExlbmd0aD0iMjgiIHg9IjQyMC41IiB5PSI3OC43MzQ0Ij5Vc2VyPC90ZXh0PjwvZz48ZyBpZD0iZWxlbV9TY2FuIEZpbmdlcnByaW50Ij48ZWxsaXBzZSBjeD0iMzUxLjQzODQiIGN5PSIxNTguOTg3NyIgZmlsbD0iI0YxRjFGMSIgcng9Ijc1LjQzODQiIHJ5PSIxNy40ODc3IiBzdHlsZT0ic3Ryb2tlOiMxODE4MTg7c3Ryb2tlLXdpZHRoOjAuNTsiLz48dGV4dCBmaWxsPSIjMDAwMDAwIiBmb250LWZhbWlseT0ic2Fucy1zZXJpZiIgZm9udC1zaXplPSIxNCIgbGVuZ3RoQWRqdXN0PSJzcGFjaW5nIiB0ZXh0TGVuZ3RoPSIxMTIiIHg9IjI5NS40Mzg0IiB5PSIxNjIuNzI5OSI+U2NhbiBGaW5nZXJwcmludDwvdGV4dD48L2c+PGcgaWQ9ImVsZW1fRW50ZXIgT1RQIj48ZWxsaXBzZSBjeD0iNTE4LjUwNTQiIGN5PSIxNTkuMTAxMSIgZmlsbD0iI0YxRjFGMSIgcng9IjU2LjAwNTQiIHJ5PSIxMy42MDExIiBzdHlsZT0ic3Ryb2tlOiMxODE4MTg7c3Ryb2tlLXdpZHRoOjAuNTsiLz48dGV4dCBmaWxsPSIjMDAwMDAwIiBmb250LWZhbWlseT0ic2Fucy1zZXJpZiIgZm9udC1zaXplPSIxNCIgbGVuZ3RoQWRqdXN0PSJzcGFjaW5nIiB0ZXh0TGVuZ3RoPSI2MyIgeD0iNDg3LjAwNTQiIHk9IjE2Mi44NDMzIj5FbnRlciBPVFA8L3RleHQ+PC9nPjwhLS1lbnRpdHkgTG9ja2VyIFN5c3RlbS0tPjxnIGlkPSJlbGVtX0xvY2tlciBTeXN0ZW0iPjxlbGxpcHNlIGN4PSI0MzQuNSIgY3k9IjI2MCIgZmlsbD0iI0YxRjFGMSIgcng9IjgiIHJ5PSI4IiBzdHlsZT0ic3Ryb2tlOiMxODE4MTg7c3Ryb2tlLXdpZHRoOjAuNTsiLz48cGF0aCBkPSJNNDM0LjUsMjY4IEw0MzQuNSwyOTUgTTQyMS41LDI3NiBMNDQ3LjUsMjc2IE00MzQuNSwyOTUgTDQyMS41LDMxMCBNNDM0LjUsMjk1IEw0NDcuNSwzMTAgIiBmaWxsPSJub25lIiBzdHlsZT0ic3Ryb2tlOiMxODE4MTg7c3Ryb2tlLXdpZHRoOjAuNTsiLz48dGV4dCBmaWxsPSIjMDAwMDAwIiBmb250LWZhbWlseT0ic2Fucy1zZXJpZiIgZm9udC1zaXplPSIxNCIgbGVuZ3RoQWRqdXN0PSJzcGFjaW5nIiB0ZXh0TGVuZ3RoPSI5MiIgeD0iMzg4LjUiIHk9IjMyNC43MzQ0Ij5Mb2NrZXIgU3lzdGVtPC90ZXh0PjwvZz48IS0tZW50aXR5IFVzZXIgRGF0YS0tPjxnIGlkPSJlbGVtX1VzZXIgRGF0YSI+PGVsbGlwc2UgY3g9IjM3LjUiIGN5PSI0MTAiIGZpbGw9IiNGMUYxRjEiIHJ4PSI4IiByeT0iOCIgc3R5bGU9InN0cm9rZTojMTgxODE4O3N0cm9rZS13aWR0aDowLjU7Ii8+PHBhdGggZD0iTTM3LjUsNDE4IEwzNy41LDQ0NSBNMjQuNSw0MjYgTDUwLjUsNDI2IE0zNy41LDQ0NSBMMjQuNSw0NjAgTTM3LjUsNDQ1IEw1MC41LDQ2MCAiIGZpbGw9Im5vbmUiIHN0eWxlPSJzdHJva2U6IzE4MTgxODtzdHJva2Utd2lkdGg6MC41OyIvPjx0ZXh0IGZpbGw9IiMwMDAwMDAiIGZvbnQtZmFtaWx5PSJzYW5zLXNlcmlmIiBmb250LXNpemU9IjE0IiBsZW5ndGhBZGp1c3Q9InNwYWNpbmciIHRleHRMZW5ndGg9IjYzIiB4PSI2IiB5PSI0NzQuNzM0NCI+VXNlciBEYXRhPC90ZXh0PjwvZz48IS0tZW50aXR5IExvY2tlciBEYXRhLS0+PGcgaWQ9ImVsZW1fTG9ja2VyIERhdGEiPjxlbGxpcHNlIGN4PSI1MTkuNSIgY3k9IjQxMCIgZmlsbD0iI0YxRjFGMSIgcng9IjgiIHJ5PSI4IiBzdHlsZT0ic3Ryb2tlOiMxODE4MTg7c3Ryb2tlLXdpZHRoOjAuNTsiLz48cGF0aCBkPSJNNTE5LjUsNDE4IEw1MTkuNSw0NDUgTTUwNi41LDQyNiBMNTMyLjUsNDI2IE01MTkuNSw0NDUgTDUwNi41LDQ2MCBNNTE5LjUsNDQ1IEw1MzIuNSw0NjAgIiBmaWxsPSJub25lIiBzdHlsZT0ic3Ryb2tlOiMxODE4MTg7c3Ryb2tlLXdpZHRoOjAuNTsiLz48dGV4dCBmaWxsPSIjMDAwMDAwIiBmb250LWZhbWlseT0ic2Fucy1zZXJpZiIgZm9udC1zaXplPSIxNCIgbGVuZ3RoQWRqdXN0PSJzcGFjaW5nIiB0ZXh0TGVuZ3RoPSI3NyIgeD0iNDgxIiB5PSI0NzQuNzM0NCI+TG9ja2VyIERhdGE8L3RleHQ+PC9nPjwhLS1saW5rIFVzZXIgdG8gU2NhbiBGaW5nZXJwcmludC0tPjxnIGlkPSJsaW5rX1VzZXJfU2NhbiBGaW5nZXJwcmludCI+PHBhdGggZD0iTTQyMC40Miw2My4zNCBDNDA0LjQyLDg1LjMyIDM4Mi4xMDE4LDExNS45Njk2IDM2Ny4wMjE4LDEzNi42Nzk2ICIgZmlsbD0ibm9uZSIgaWQ9IlVzZXItdG8tU2NhbiBGaW5nZXJwcmludCIgc3R5bGU9InN0cm9rZTojMTgxODE4O3N0cm9rZS13aWR0aDoxLjA7Ii8+PHBvbHlnb24gZmlsbD0iIzE4MTgxOCIgcG9pbnRzPSIzNjMuNDksMTQxLjUzLDM3Mi4wMjEzLDEzNi42MDksMzY2LjQzMzIsMTM3LjQ4OCwzNjUuNTU0MSwxMzEuODk5OSwzNjMuNDksMTQxLjUzIiBzdHlsZT0ic3Ryb2tlOiMxODE4MTg7c3Ryb2tlLXdpZHRoOjEuMDsiLz48L2c+PCEtLWxpbmsgVXNlciB0byBFbnRlciBPVFAtLT48ZyBpZD0ibGlua19Vc2VyX0VudGVyIE9UUCI+PHBhdGggZD0iTTQ0OC41Niw2My4wOCBDNDY1Ljg0LDg2LjUzIDQ5MS4xMTEzLDEyMC44MjkzIDUwNS43NzEzLDE0MC43MjkzICIgZmlsbD0ibm9uZSIgaWQ9IlVzZXItdG8tRW50ZXIgT1RQIiBzdHlsZT0ic3Ryb2tlOiMxODE4MTg7c3Ryb2tlLXdpZHRoOjEuMDsiLz48cG9seWdvbiBmaWxsPSIjMTgxODE4IiBwb2ludHM9IjUwOS4zMywxNDUuNTYsNTA3LjIxMjQsMTM1Ljk0MTUsNTA2LjM2NDQsMTQxLjUzNDQsNTAwLjc3MTUsMTQwLjY4NjQsNTA5LjMzLDE0NS41NiIgc3R5bGU9InN0cm9rZTojMTgxODE4O3N0cm9rZS13aWR0aDoxLjA7Ii8+PC9nPjwhLS1saW5rIFNjYW4gRmluZ2VycHJpbnQgdG8gTG9ja2VyIFN5c3RlbS0tPjxnIGlkPSJsaW5rX1NjYW4gRmluZ2VycHJpbnRfTG9ja2VyIFN5c3RlbSI+PHBhdGggZD0iTTM2MC4yNCwxNzYuNDcgQzM2Ny4wNiwxODkuMDIgMzc2LjkzLDIwNi42MiAzODYuNSwyMjEuNSBDMzkyLjgxLDIzMS4zMiAzOTYuNTA3MSwyMzYuNzk4NyA0MDMuMzY3MSwyNDYuMzM4NyAiIGZpbGw9Im5vbmUiIGlkPSJTY2FuIEZpbmdlcnByaW50LXRvLUxvY2tlciBTeXN0ZW0iIHN0eWxlPSJzdHJva2U6IzE4MTgxODtzdHJva2Utd2lkdGg6MS4wOyIvPjxwb2x5Z29uIGZpbGw9IiMxODE4MTgiIHBvaW50cz0iNDA2Ljg3LDI1MS4yMSw0MDQuODYzMywyNDEuNTY3OCw0MDMuOTUwOSwyNDcuMTUwNiwzOTguMzY4MSwyNDYuMjM4Miw0MDYuODcsMjUxLjIxIiBzdHlsZT0ic3Ryb2tlOiMxODE4MTg7c3Ryb2tlLXdpZHRoOjEuMDsiLz48dGV4dCBmaWxsPSIjMDAwMDAwIiBmb250LWZhbWlseT0ic2Fucy1zZXJpZiIgZm9udC1zaXplPSIxMyIgbGVuZ3RoQWRqdXN0PSJzcGFjaW5nIiB0ZXh0TGVuZ3RoPSI3NCIgeD0iMzg3LjUiIHk9IjIxOS43ODkxIj5GaW5nZXJwcmludDwvdGV4dD48L2c+PCEtLWxpbmsgRW50ZXIgT1RQIHRvIExvY2tlciBTeXN0ZW0tLT48ZyBpZD0ibGlua19FbnRlciBPVFBfTG9ja2VyIFN5c3RlbSI+PHBhdGggZD0iTTUxMC4xNCwxNzIuNzQgQzQ5OC4yMywxOTAuODkgNDc5LjE5MjEsMjE5Ljg5MzggNDYxLjg3MjEsMjQ2LjI4MzggIiBmaWxsPSJub25lIiBpZD0iRW50ZXIgT1RQLXRvLUxvY2tlciBTeXN0ZW0iIHN0eWxlPSJzdHJva2U6IzE4MTgxODtzdHJva2Utd2lkdGg6MS4wOyIvPjxwb2x5Z29uIGZpbGw9IiMxODE4MTgiIHBvaW50cz0iNDU4LjU4LDI1MS4zLDQ2Ni44NjIzLDI0NS45NzA1LDQ2MS4zMjM1LDI0Ny4xMTk5LDQ2MC4xNzQxLDI0MS41ODEsNDU4LjU4LDI1MS4zIiBzdHlsZT0ic3Ryb2tlOiMxODE4MTg7c3Ryb2tlLXdpZHRoOjEuMDsiLz48dGV4dCBmaWxsPSIjMDAwMDAwIiBmb250LWZhbWlseT0ic2Fucy1zZXJpZiIgZm9udC1zaXplPSIxMyIgbGVuZ3RoQWRqdXN0PSJzcGFjaW5nIiB0ZXh0TGVuZ3RoPSIyMCIgeD0iNDg3LjUiIHk9IjIxOS43ODkxIj5PVFA8L3RleHQ+PC9nPjwhLS1saW5rIExvY2tlciBTeXN0ZW0gdG8gVXNlciBEYXRhLS0+PGcgaWQ9ImxpbmtfTG9ja2VyIFN5c3RlbV9Vc2VyIERhdGEiPjxwYXRoIGQ9Ik0zODguMTgsMjkyLjE1IEMyOTguNzUsMjk3LjI1IDEwNi45MywzMTMuMDggNTkuNSwzNTYuNSBDNDcuMDcsMzY3Ljg4IDQyLjMwMzMsMzc5LjU1MyAzOS43OTMzLDM5NS40OTMgIiBmaWxsPSJub25lIiBpZD0iTG9ja2VyIFN5c3RlbS10by1Vc2VyIERhdGEiIHN0eWxlPSJzdHJva2U6IzE4MTgxODtzdHJva2Utd2lkdGg6MS4wOyIvPjxwb2x5Z29uIGZpbGw9IiMxODE4MTgiIHBvaW50cz0iMzguODYsNDAxLjQyLDQ0LjIxMTMsMzkzLjE1MTcsMzkuNjM3NywzOTYuNDgwOSwzNi4zMDg2LDM5MS45MDc0LDM4Ljg2LDQwMS40MiIgc3R5bGU9InN0cm9rZTojMTgxODE4O3N0cm9rZS13aWR0aDoxLjA7Ii8+PHRleHQgZmlsbD0iIzAwMDAwMCIgZm9udC1mYW1pbHk9InNhbnMtc2VyaWYiIGZvbnQtc2l6ZT0iMTMiIGxlbmd0aEFkanVzdD0ic3BhY2luZyIgdGV4dExlbmd0aD0iMTA3IiB4PSI2MC41IiB5PSIzNjkuNzg5MSI+RmluZ2VycHJpbnQsIE9UUDwvdGV4dD48L2c+PCEtLWxpbmsgTG9ja2VyIFN5c3RlbSB0byBMb2NrZXIgRGF0YS0tPjxnIGlkPSJsaW5rX0xvY2tlciBTeXN0ZW1fTG9ja2VyIERhdGEiPjxwYXRoIGQ9Ik0zODguMjEsMjg5LjkzIEMzMDEuMjEsMjkxLjM3IDEyNi45MywzMDIuNjQgMTgzLjUsMzcxLjUgQzIyMC43Nyw0MTYuODcgMzk0LjUyOTMsNDMxLjQ4NjggNDc0LjcyOTMsNDM1Ljk0NjggIiBmaWxsPSJub25lIiBpZD0iTG9ja2VyIFN5c3RlbS10by1Mb2NrZXIgRGF0YSIgc3R5bGU9InN0cm9rZTojMTgxODE4O3N0cm9rZS13aWR0aDoxLjA7Ii8+PHBvbHlnb24gZmlsbD0iIzE4MTgxOCIgcG9pbnRzPSI0ODAuNzIsNDM2LjI4LDQ3MS45NTYsNDMxLjc4NjQsNDc1LjcyNzcsNDM2LjAwMjQsNDcxLjUxMTgsNDM5Ljc3NDEsNDgwLjcyLDQzNi4yOCIgc3R5bGU9InN0cm9rZTojMTgxODE4O3N0cm9rZS13aWR0aDoxLjA7Ii8+PHRleHQgZmlsbD0iIzAwMDAwMCIgZm9udC1mYW1pbHk9InNhbnMtc2VyaWYiIGZvbnQtc2l6ZT0iMTMiIGxlbmd0aEFkanVzdD0ic3BhY2luZyIgdGV4dExlbmd0aD0iMjA2IiB4PSIxODQuNSIgeT0iMzY5Ljc4OTEiPkZpbmdlcnByaW50IFRlbXBsYXRlLCBWYWxpZCBPVFA8L3RleHQ+PC9nPjwhLS1saW5rIExvY2tlciBEYXRhIHRvIExvY2tlciBTeXN0ZW0tLT48ZyBpZD0ibGlua19Mb2NrZXIgRGF0YV9Mb2NrZXIgU3lzdGVtIj48cGF0aCBkPSJNNDgwLjk3LDQxOS42IEM0NjIuMzgsNDA4LjUgNDQxLjkxLDM5Mi40MSA0MzEuNSwzNzEuNSBDNDI0Ljc1LDM1Ny45NCA0MjMuNTE1LDM0Ny40MzQxIDQyNS4xMTUsMzMyLjg2NDEgIiBmaWxsPSJub25lIiBpZD0iTG9ja2VyIERhdGEtdG8tTG9ja2VyIFN5c3RlbSIgc3R5bGU9InN0cm9rZTojMTgxODE4O3N0cm9rZS13aWR0aDoxLjA7Ii8+PHBvbHlnb24gZmlsbD0iIzE4MTgxOCIgcG9pbnRzPSI0MjUuNzcsMzI2LjksNDIwLjgxMTUsMzM1LjQwOTYsNDI1LjIyNDIsMzMxLjg3MDEsNDI4Ljc2MzcsMzM2LjI4MjksNDI1Ljc3LDMyNi45IiBzdHlsZT0ic3Ryb2tlOiMxODE4MTg7c3Ryb2tlLXdpZHRoOjEuMDsiLz48dGV4dCBmaWxsPSIjMDAwMDAwIiBmb250LWZhbWlseT0ic2Fucy1zZXJpZiIgZm9udC1zaXplPSIxMyIgbGVuZ3RoQWRqdXN0PSJzcGFjaW5nIiB0ZXh0TGVuZ3RoPSIxMjkiIHg9IjQzMi41IiB5PSIzNjkuNzg5MSI+RmluZ2VycHJpbnQgTWF0Y2hlZDwvdGV4dD48L2c+PCEtLWxpbmsgTG9ja2VyIERhdGEgdG8gTG9ja2VyIFN5c3RlbS0tPjxnIGlkPSJsaW5rX0xvY2tlciBEYXRhX0xvY2tlciBTeXN0ZW0iPjxwYXRoIGQ9Ik01NTguMDUsNDAyLjQzIEM1NjguOTYsMzg4LjA2IDU3NS42NywzNzEuMzggNTY2LjUsMzU2LjUgQzU0Ny44NiwzMjYuMjQgNTE2LjQ4NzQsMzExLjAxNTcgNDg2LjM1NzQsMzAxLjc5NTcgIiBmaWxsPSJub25lIiBpZD0iTG9ja2VyIERhdGEtdG8tTG9ja2VyIFN5c3RlbS0xIiBzdHlsZT0ic3Ryb2tlOiMxODE4MTg7c3Ryb2tlLXdpZHRoOjEuMDsiLz48cG9seWdvbiBmaWxsPSIjMTgxODE4IiBwb2ludHM9IjQ4MC42MiwzMDAuMDQsNDg4LjA1NTYsMzA2LjQ5ODQsNDg1LjQwMTIsMzAxLjUwMzEsNDkwLjM5NjUsMjk4Ljg0ODYsNDgwLjYyLDMwMC4wNCIgc3R5bGU9InN0cm9rZTojMTgxODE4O3N0cm9rZS13aWR0aDoxLjA7Ii8+PHRleHQgZmlsbD0iIzAwMDAwMCIgZm9udC1mYW1pbHk9InNhbnMtc2VyaWYiIGZvbnQtc2l6ZT0iMTMiIGxlbmd0aEFkanVzdD0ic3BhY2luZyIgdGV4dExlbmd0aD0iODkiIHg9IjU3MS41IiB5PSIzNjkuNzg5MSI+T1RQIEdlbmVyYXRlZDwvdGV4dD48L2c+PCEtLWxpbmsgTG9ja2VyIERhdGEgdG8gTG9ja2VyIFN5c3RlbS0tPjxnIGlkPSJsaW5rX0xvY2tlciBEYXRhX0xvY2tlciBTeXN0ZW0iPjxwYXRoIGQ9Ik01NTguMDEsNDMyLjI5IEM2MTIuNSw0MjIuNTYgNzAyLjA0LDM5OS41MiA2NjkuNSwzNTYuNSBDNjQ2Ljc3LDMyNi40NCA1NDguMjM4LDMwNi45OTY2IDQ4Ni40OTgsMjk3LjM0NjYgIiBmaWxsPSJub25lIiBpZD0iTG9ja2VyIERhdGEtdG8tTG9ja2VyIFN5c3RlbS0yIiBzdHlsZT0ic3Ryb2tlOiMxODE4MTg7c3Ryb2tlLXdpZHRoOjEuMDsiLz48cG9seWdvbiBmaWxsPSIjMTgxODE4IiBwb2ludHM9IjQ4MC41NywyOTYuNDIsNDg4Ljg0NDMsMzAxLjc2MTgsNDg1LjUxLDI5Ny4xOTIxLDQ5MC4wNzk3LDI5My44NTc4LDQ4MC41NywyOTYuNDIiIHN0eWxlPSJzdHJva2U6IzE4MTgxODtzdHJva2Utd2lkdGg6MS4wOyIvPjx0ZXh0IGZpbGw9IiMwMDAwMDAiIGZvbnQtZmFtaWx5PSJzYW5zLXNlcmlmIiBmb250LXNpemU9IjEzIiBsZW5ndGhBZGp1c3Q9InNwYWNpbmciIHRleHRMZW5ndGg9Ijc3IiB4PSI2NzYuNSIgeT0iMzY5Ljc4OTEiPk9wZW4gTG9ja2VyPC90ZXh0PjwvZz48IS0tU1JDPVtaTy1uM2U4bTQ4UnRGaU5QSUg5dTBHU0o0ajE1V3g3TGxNYkZST0lKYjJ3LWxIS1MwMzZvX2xUenp6eWozNXVpOE1JZko4S2laWmFPdkhMWl9ESVd1djBhUXJXQWhHV3NiZ3hlUWNWOUh1RGZKWHVUNUY4R0NWUURqV3BWRlZHekdFQlBVQW11aEZlOHdzdHVHT1RIazZXS2otWngzaVoyblFFYlNVakNBZnppR1dBOUxMcWdacDZTTE1kRGlCU0pfaHUzVS1OcjNTcWlCbkowNVdiVEE5cmZyNFpHZkl5MF0tLT48L2c+PC9zdmc+;" vertex="1" parent="1">
            <mxGeometry x="-220" y="430" width="381" height="241.82" as="geometry" />
          </mxCell>
        </UserObject>
      </root>
    </mxGraphModel>
  </diagram>
</mxfile>
